<svg width="1439" height="531" viewBox="0 0 1439 531" fill="none" xmlns="http://www.w3.org/2000/svg">
<path d="M1438.15 1.23004C1433.35 -0.309965 1428.17 -0.0199647 1423.12 2.48004C1428.28 3.60004 1433.32 5.27004 1438.15 7.41004V1.23004Z" fill="url(#paint0_linear)"/>
<path d="M1438.15 180.42C1434.22 181.94 1430.32 183.65 1427.14 186.19C1423.31 189.24 1423.62 190.38 1418.56 190.98C1415.12 191.39 1411.17 190.99 1407.7 190.93C1400.7 190.8 1400.92 191.02 1396.24 195.66C1393.91 197.97 1391.25 200.05 1388.8 201.79C1384.43 204.9 1382.44 206.29 1379.19 211.13C1372.46 221.15 1371.2 230.55 1367.08 241.41C1366.05 244.12 1363.98 252.42 1361.93 254.25C1358.19 257.6 1355.25 255.06 1351 253.68C1333.9 248.12 1318.11 242.01 1301.07 238.14C1289.01 235.4 1279 239.36 1267.3 239.51C1263.16 239.56 1260.15 239.45 1256.47 240.84C1253.79 241.85 1251.29 244.23 1248.53 245C1236.24 248.42 1223.03 253.3 1210.46 257.82C1195.57 263.18 1183.53 273.96 1172.35 285.17C1166.24 291.3 1160.61 296.27 1153.96 301.34C1147.92 305.94 1144.63 313.55 1138.37 318.15C1126.27 327.02 1115.14 319.49 1102.41 323.09C1097.54 324.47 1093.34 330.12 1090.55 333.9C1085.51 340.72 1079.8 346.67 1073.17 352.04C1064.63 358.96 1056.94 368.17 1046.52 372.21C1037.16 375.84 1015.36 380.12 1005.41 379.92C1002.28 375.82 998.72 377.73 994.55 377.29C990.51 376.86 991.69 376.26 988.6 375.17C981.22 372.57 974.46 368.61 967.08 365.75C951.4 359.66 931.5 359.43 919.01 347.58C911.98 340.91 909.85 336.69 900.11 336.74C893.69 336.77 888.76 338.08 883.31 341.31C877.87 344.53 873.39 348.1 869.81 352.85C866.2 357.64 856.73 366.45 850.91 368.72C844.37 371.27 836.49 367.38 829.85 369.66C824.61 371.45 818.7 375.65 816.08 379.82C812.45 385.6 807.69 390.73 803.51 396.27C800.9 399.74 798.08 406.89 794.27 409.07C788.52 412.37 780.17 407.34 774.46 406.82C768.76 406.3 762.75 407 757.01 406.93C746.76 406.81 742.8 410.68 735.55 417.72C728.08 424.97 718.85 431.01 708.41 431.22C704.27 425.69 695.8 423.78 690.18 419.74C684.25 415.48 679.65 409.78 673.27 406.16C662.84 400.23 648.5 394.58 640.67 385.35C635.32 379.05 634.84 377.23 627.46 373.91C619.88 370.5 613.26 365.42 605.82 361.71C599.39 358.5 593.07 356.96 587.04 352.99C582.04 349.69 576.11 348.39 571.3 345.1C566.8 342.03 564.93 336.76 560 333.89C551 328.66 547.25 325.42 536.93 325.9C532.38 326.11 532.7 327.38 529.2 328.62C522.03 331.17 516.78 331.36 509.02 331.31C502.65 331.27 496.21 331.03 489.85 331.26C474.63 331.81 460.72 342.24 446.71 344.88C434.33 347.22 419.44 340.61 408.85 348.13C389.24 362.03 371.99 371.58 352.01 385.32C339.72 380.73 340.07 367.61 332.43 358.72C323.57 348.4 309.65 348.95 300.36 339.26C290.19 328.65 280.5 316.85 272.39 304.64C266.83 296.26 261.74 288.37 251.74 285.3C247.91 284.12 244.66 283.64 241.23 281.54C237.62 279.32 236.66 275.71 231.85 274.69C228.63 274.01 225.69 275.28 222.44 274.23C219.86 273.4 217.17 270.76 214.79 269.43C205.22 264.1 195.09 257.69 185.37 252.86C177.68 249.03 171.08 251.25 162.95 250.47C153.98 249.62 141.02 243.01 134.75 236.66C127.12 228.94 120.29 221.81 110.6 216.49C96.57 208.79 82.25 205.15 66.74 201.74C43.95 196.74 20.72 193.7 -2.03998 188.61V530.98H1438.11V180.42H1438.15Z" fill="url(#paint1_linear)"/>
<path d="M491.59 291.42C491.51 291.39 491.43 291.36 491.34 291.33C491.47 291.16 491.59 290.99 491.71 290.81C491.72 290.8 491.73 290.78 491.74 290.77C491.91 290.53 492.06 290.28 492.22 290.03C492.23 290.03 492.24 290.04 492.25 290.04C492.08 290.53 491.85 290.99 491.59 291.42Z" fill="url(#paint2_linear)"/>
<path d="M1432.19 19.6901C1430.51 22.4101 1429.94 25.0601 1429.13 28.1601C1431.97 25.4401 1434.99 22.9201 1438.14 20.5801V8.89008C1436.22 8.81008 1434.27 8.91008 1432.35 9.20008C1426.52 10.0801 1421.44 13.8801 1417.93 18.6101C1424.52 16.7801 1431.2 15.2901 1437.93 14.0901C1435.56 15.3501 1433.61 17.3901 1432.19 19.6901Z" fill="url(#paint3_linear)"/>
<path d="M760.12 252.85C760.11 252.87 760.09 252.9 760.08 252.92C760.07 252.85 760.06 252.79 760.05 252.72C760.07 252.76 760.1 252.8 760.12 252.85Z" fill="url(#paint4_linear)"/>
<path d="M106.3 151.1C105.68 151.49 105.11 151.95 104.61 152.47C104.61 152.43 104.61 152.39 104.61 152.36C104.72 152.26 104.82 152.17 104.92 152.07C105.36 151.68 105.83 151.33 106.29 150.97C106.3 151.01 106.3 151.06 106.3 151.1Z" fill="url(#paint5_linear)"/>
<path d="M102.9 154.61C102.77 154.75 102.64 154.88 102.52 155.02C102.51 154.95 102.5 154.88 102.48 154.8C102.62 154.57 102.77 154.34 102.92 154.11C102.92 154.27 102.91 154.44 102.9 154.61Z" fill="url(#paint6_linear)"/>
<path d="M98.29 137.34C98.29 137.54 98.28 137.73 98.28 137.93C98.2 137.74 98.06 137.59 97.96 137.41C98.07 137.38 98.18 137.36 98.29 137.34Z" fill="url(#paint7_linear)"/>
<path d="M100.71 137.75C100.69 137.95 100.66 138.15 100.65 138.34C100.64 138.3 100.63 138.25 100.62 138.21C100.55 137.95 100.47 137.69 100.39 137.44C100.49 137.54 100.59 137.66 100.71 137.75Z" fill="url(#paint8_linear)"/>
<path d="M100.28 153.07C100.27 153.09 100.25 153.12 100.24 153.14C100.23 153.07 100.22 153.01 100.21 152.94C100.23 152.98 100.25 153.02 100.28 153.07Z" fill="url(#paint9_linear)"/>
<path d="M81.66 132.46C81.47 132.68 81.25 132.77 80.99 132.87C80.66 133 80.46 133.15 80.25 133.43C80.02 133.75 79.95 133.77 79.51 133.68C79.46 133.67 79.36 133.65 79.25 133.64C79.35 133.64 79.44 133.61 79.51 133.54C79.62 133.49 79.66 133.47 79.8 133.42C80.08 133.34 80.23 133.1 80.43 132.92C80.57 132.79 80.73 132.67 80.88 132.55C81.14 132.36 81.21 132.15 81.42 131.89C81.63 131.64 81.61 131.69 81.87 131.68C81.83 131.73 81.8 131.78 81.78 131.86C81.72 132.14 81.85 132.24 81.66 132.46Z" fill="url(#paint10_linear)"/>
<path d="M62.75 139.95L62.8 137.98C62.8 137.98 62.8 137.98 62.81 137.98C62.97 137.97 63.05 137.94 63.22 137.97C63.4 138 63.57 137.98 63.74 137.95C63.73 137.96 63.73 137.97 63.73 137.99C63.47 138.59 63.16 139.22 62.75 139.95Z" fill="url(#paint11_linear)"/>
<path d="M63.2 124.16L63.23 123.13C63.28 123.13 63.32 123.14 63.37 123.15C63.68 123.21 63.9 123.31 64.15 123.5C64.22 123.55 64.37 123.63 64.38 123.73C64.38 123.89 64.08 124.02 63.96 124.07C63.73 124.15 63.46 124.17 63.2 124.16Z" fill="url(#paint12_linear)"/>
<path d="M140.74 167.75C140.73 167.77 140.71 167.8 140.7 167.82C140.69 167.75 140.68 167.69 140.67 167.62C140.69 167.66 140.72 167.7 140.74 167.75Z" fill="url(#paint13_linear)"/>
<path d="M215.09 225.44C215.05 225.39 215.01 225.35 214.98 225.31C215.19 225.19 215.4 225.07 215.61 224.95C215.66 224.92 215.7 224.89 215.75 224.86C215.86 224.79 215.97 224.72 216.08 224.65C216.07 224.65 216.07 224.65 216.06 224.66C216.34 224.48 216.62 224.28 216.89 224.08L216.88 224.09C216.9 224.07 216.92 224.06 216.94 224.04C216.94 224.06 216.95 224.08 216.95 224.11C216.88 224.19 216.82 224.27 216.75 224.34C216.59 224.51 216.43 224.68 216.27 224.83C216 225.09 215.71 225.33 215.42 225.54C215.39 225.57 215.35 225.59 215.31 225.62C215.27 225.6 215.23 225.58 215.19 225.55C215.15 225.52 215.12 225.48 215.09 225.44Z" fill="url(#paint14_linear)"/>
<path d="M436.54 274.56C436.53 274.58 436.51 274.61 436.5 274.63C436.49 274.56 436.48 274.5 436.47 274.43C436.5 274.47 436.52 274.52 436.54 274.56Z" fill="url(#paint15_linear)"/>
<path d="M329.67 250.62C329.89 250.78 330.07 251.02 330.19 251.38C330.23 251.5 330.26 251.62 330.28 251.74C330.07 251.38 329.86 251 329.67 250.62Z" fill="url(#paint16_linear)"/>
<path d="M634.91 221.2H634.92V221.21C634.92 221.21 634.91 221.21 634.91 221.2Z" fill="url(#paint17_linear)"/>
<path d="M619.57 198.4C619.59 198.44 619.63 198.48 619.66 198.52C619.63 198.51 619.6 198.5 619.58 198.49C619.58 198.47 619.58 198.44 619.57 198.4Z" fill="url(#paint18_linear)"/>
<path d="M586.89 233.92C586.73 233.85 586.55 233.8 586.38 233.75C586.39 233.75 586.39 233.75 586.4 233.75C586.54 233.75 586.78 233.69 586.91 233.77C586.9 233.82 586.9 233.87 586.89 233.92Z" fill="url(#paint19_linear)"/>
<path d="M616.11 210.52C615.97 210.54 615.83 210.54 615.69 210.55C615.71 210.48 615.73 210.41 615.74 210.34C615.91 210.32 616.05 210.24 616.2 210.19C616.17 210.31 616.14 210.41 616.11 210.52Z" fill="url(#paint20_linear)"/>
<path d="M610.57 221.78C610.54 221.83 610.52 221.87 610.49 221.91C610.33 221.9 610.17 221.88 610.01 221.87C610.14 221.81 610.28 221.75 610.4 221.65C610.5 221.58 610.62 221.54 610.73 221.48C610.68 221.58 610.64 221.67 610.57 221.78Z" fill="url(#paint21_linear)"/>
<path d="M619.19 208.22C619.1 208.26 618.99 208.27 618.88 208.29C618.99 208.22 619.09 208.16 619.18 208.11C619.18 208.15 619.18 208.18 619.19 208.22Z" fill="url(#paint22_linear)"/>
<path d="M583.69 258.98C583.68 259.31 583.67 259.64 583.66 259.97C583.67 259.64 583.68 259.31 583.69 258.98C583.68 258.98 583.69 258.98 583.69 258.98Z" fill="url(#paint23_linear)"/>
<path d="M591.66 213.11C591.41 213.24 590.95 213.16 590.52 213.09C590.75 213.01 590.99 212.93 591.28 212.94C591.44 212.94 591.63 212.96 591.82 212.97C591.76 213.02 591.72 213.08 591.66 213.11Z" fill="url(#paint24_linear)"/>
<path d="M583.34 279.15C583.34 279.69 583.33 280.23 583.33 280.77H583.32C583.32 280.23 583.33 279.69 583.34 279.15Z" fill="url(#paint25_linear)"/>
<path d="M617.46 234.45C617.39 234.37 617.32 234.29 617.25 234.21C617.26 234.21 617.28 234.2 617.29 234.2C617.81 234.11 618.13 234.16 618.44 234.31C618.1 234.37 617.78 234.41 617.46 234.45Z" fill="url(#paint26_linear)"/>
<path d="M522.83 253.57V253.58L522.82 253.57H522.83Z" fill="url(#paint27_linear)"/>
<path d="M502.49 297.89C502.64 297.93 502.78 297.99 502.92 298.05C502.78 298 502.64 297.95 502.49 297.89Z" fill="url(#paint28_linear)"/>
<path d="M509.02 281.76L509.11 278.52H509.12C509.39 278.5 509.51 278.45 509.8 278.5C510.1 278.54 510.37 278.51 510.65 278.47C510.64 278.49 510.63 278.51 510.63 278.53C510.21 279.53 509.69 280.57 509.02 281.76Z" fill="url(#paint29_linear)"/>
<path d="M504.52 297.96C504.54 298.15 504.57 298.34 504.6 298.53C504.6 298.54 504.6 298.54 504.59 298.55C504.48 298.53 504.38 298.5 504.27 298.47C504.36 298.3 504.44 298.13 504.52 297.96Z" fill="url(#paint30_linear)"/>
<path d="M501.86 293.07C501.91 293.04 501.95 293.01 502 292.98C502.11 292.91 502.22 292.84 502.33 292.77C502.32 292.77 502.32 292.77 502.31 292.78C502.59 292.6 502.87 292.4 503.14 292.2L503.13 292.21C503.15 292.19 503.17 292.18 503.19 292.16C503.19 292.18 503.2 292.2 503.2 292.23C503.13 292.31 503.07 292.39 503 292.46C502.84 292.63 502.68 292.8 502.52 292.95C502.25 293.21 501.96 293.45 501.67 293.66C501.63 293.69 501.59 293.71 501.56 293.74C501.55 293.75 501.53 293.76 501.52 293.77C501.47 293.69 501.41 293.62 501.36 293.55C501.32 293.51 501.29 293.46 501.25 293.42C501.44 293.32 501.65 293.2 501.86 293.07Z" fill="url(#paint31_linear)"/>
<path d="M498.87 295.42C498.88 295.44 498.89 295.45 498.9 295.47C498.87 295.54 498.84 295.61 498.81 295.68C498.78 295.66 498.75 295.64 498.72 295.62C498.76 295.57 498.79 295.53 498.83 295.48V295.49C498.85 295.46 498.86 295.44 498.87 295.42Z" fill="url(#paint32_linear)"/>
<path d="M823.63 252.28C823.61 252.32 823.59 252.36 823.57 252.4C823.55 252.29 823.53 252.17 823.52 252.06C823.56 252.13 823.6 252.2 823.63 252.28Z" fill="url(#paint33_linear)"/>
<path d="M780.38 228.58C780.35 228.63 780.33 228.67 780.3 228.72C780.28 228.59 780.26 228.45 780.24 228.32C780.28 228.4 780.33 228.49 780.38 228.58Z" fill="url(#paint34_linear)"/>
<path d="M1163.91 197.05H1163.92V197.06C1163.92 197.06 1163.92 197.06 1163.91 197.05Z" fill="url(#paint35_linear)"/>
<path d="M1129.27 226.23C1129.39 226.21 1129.49 226.17 1129.59 226.13C1129.57 226.18 1129.54 226.24 1129.52 226.28C1129.46 226.39 1129.37 226.44 1129.27 226.47C1129.27 226.39 1129.27 226.31 1129.27 226.23Z" fill="url(#paint36_linear)"/>
<path d="M1138.77 230.81C1138.81 230.83 1138.81 230.86 1138.91 230.95C1138.93 230.97 1138.93 230.99 1138.95 231.02C1138.74 230.97 1138.53 230.93 1138.35 230.97C1138.49 230.9 1138.63 230.85 1138.77 230.81Z" fill="url(#paint37_linear)"/>
<path d="M1141.2 231.17C1141.24 231.19 1141.29 231.23 1141.34 231.26C1141.27 231.25 1141.21 231.25 1141.14 231.24C1140.92 231.22 1140.7 231.21 1140.48 231.19C1140.73 231.09 1140.97 231.04 1141.2 231.17Z" fill="url(#paint38_linear)"/>
<path d="M1139.99 209.08C1139.99 208.94 1139.98 208.79 1139.98 208.64C1140.01 208.65 1140.04 208.65 1140.07 208.67C1140.37 208.82 1140.38 208.96 1140.66 209.05C1140.46 209.09 1140.23 209.09 1139.99 209.08Z" fill="url(#paint39_linear)"/>
<path d="M1138.89 208.85C1138.84 208.82 1138.8 208.79 1138.74 208.78C1138.61 208.75 1138.46 208.77 1138.32 208.8C1138.36 208.77 1138.39 208.73 1138.42 208.71C1138.53 208.64 1138.64 208.62 1138.77 208.61C1138.8 208.61 1138.84 208.6 1138.87 208.6C1138.88 208.69 1138.89 208.77 1138.89 208.85Z" fill="url(#paint40_linear)"/>
<path d="M1150.85 230.21C1150.56 230.09 1150.28 229.96 1149.99 229.84L1150 229.52C1150.19 229.67 1150.37 229.83 1150.56 229.97C1150.65 230.03 1150.76 230.07 1150.85 230.13C1150.85 230.15 1150.85 230.18 1150.85 230.21Z" fill="url(#paint41_linear)"/>
<path d="M1150.89 197.73L1150.9 197.55C1150.98 197.56 1151.06 197.56 1151.13 197.58C1151.19 197.59 1151.23 197.61 1151.28 197.63C1151.15 197.65 1151.02 197.69 1150.89 197.73Z" fill="url(#paint42_linear)"/>
<path d="M1133.46 206.86C1133.45 206.85 1133.44 206.85 1133.43 206.84C1133.44 206.84 1133.45 206.84 1133.46 206.85C1133.46 206.85 1133.46 206.85 1133.46 206.86Z" fill="url(#paint43_linear)"/>
<path d="M1105.18 233.64C1105.16 233.65 1105.15 233.68 1105.12 233.69C1105.03 233.72 1104.9 233.71 1104.78 233.71C1104.91 233.66 1105.05 233.64 1105.18 233.64Z" fill="url(#paint44_linear)"/>
<path d="M1088.14 237.97L1088.13 237.96H1088.14V237.97Z" fill="url(#paint45_linear)"/>
<path d="M1142.05 244.17C1142.05 244.28 1142.04 244.4 1142.04 244.51C1142.01 244.5 1141.99 244.48 1141.96 244.47C1141.79 244.4 1141.62 244.4 1141.45 244.42C1141.66 244.35 1141.86 244.27 1142.05 244.17Z" fill="url(#paint46_linear)"/>
<path d="M1177.85 219.36C1177.67 219.39 1177.5 219.43 1177.29 219.44C1177.25 219.3 1177.26 219.16 1177.28 219.02C1177.33 219.05 1177.38 219.1 1177.43 219.13C1177.58 219.21 1177.71 219.28 1177.85 219.36Z" fill="url(#paint47_linear)"/>
<path d="M1030.08 208.9C1030.09 208.86 1030.09 208.83 1030.1 208.79C1030.1 208.83 1030.1 208.86 1030.1 208.9C1030.09 208.9 1030.09 208.9 1030.08 208.9Z" fill="url(#paint48_linear)"/>
<path d="M1338.83 119.23C1338.8 119.28 1338.78 119.33 1338.75 119.37C1338.73 119.23 1338.71 119.09 1338.68 118.95C1338.73 119.04 1338.78 119.14 1338.83 119.23Z" fill="url(#paint49_linear)"/>
<path d="M1306.29 164.93C1306.26 164.98 1306.24 165.03 1306.21 165.07C1306.19 164.93 1306.17 164.79 1306.14 164.65C1306.19 164.75 1306.24 164.84 1306.29 164.93Z" fill="url(#paint50_linear)"/>
<path d="M1397.57 26.4901C1397.56 26.4901 1397.56 26.4901 1397.55 26.4901C1397.55 26.4501 1397.56 26.4001 1397.56 26.3601C1397.57 26.4101 1397.57 26.4501 1397.57 26.4901Z" fill="url(#paint51_linear)"/>
<path d="M272.19 239.59C272.37 239.9 272.61 240.17 272.82 240.31C272.79 240.09 272.79 239.9 272.5 239.71C272.4 239.65 272.3 239.62 272.19 239.59Z" fill="url(#paint52_linear)"/>
<defs>
<linearGradient id="paint0_linear" x1="1426.99" y1="234.272" x2="1424.08" y2="417.844" gradientUnits="userSpaceOnUse">
<stop stop-color="#129483"/>
<stop offset="1" stop-color="#3EAF98"/>
</linearGradient>
<linearGradient id="paint1_linear" x1="720.546" y1="179.241" x2="716.088" y2="504.717" gradientUnits="userSpaceOnUse">
<stop stop-color="#006C6D"/>
<stop offset="1" stop-color="#3EAF98"/>
</linearGradient>
<linearGradient id="paint2_linear" x1="492.929" y1="219.446" x2="490.015" y2="403.015" gradientUnits="userSpaceOnUse">
<stop stop-color="#129483"/>
<stop offset="1" stop-color="#3EAF98"/>
</linearGradient>
<linearGradient id="paint3_linear" x1="1424.63" y1="234.234" x2="1421.72" y2="417.805" gradientUnits="userSpaceOnUse">
<stop stop-color="#129483"/>
<stop offset="1" stop-color="#3EAF98"/>
</linearGradient>
<linearGradient id="paint4_linear" x1="760.545" y1="223.695" x2="757.631" y2="407.249" gradientUnits="userSpaceOnUse">
<stop stop-color="#129483"/>
<stop offset="1" stop-color="#3EAF98"/>
</linearGradient>
<linearGradient id="paint5_linear" x1="104.482" y1="213.275" x2="101.568" y2="396.834" gradientUnits="userSpaceOnUse">
<stop stop-color="#129483"/>
<stop offset="1" stop-color="#3EAF98"/>
</linearGradient>
<linearGradient id="paint6_linear" x1="101.771" y1="213.227" x2="98.8571" y2="396.767" gradientUnits="userSpaceOnUse">
<stop stop-color="#129483"/>
<stop offset="1" stop-color="#3EAF98"/>
</linearGradient>
<linearGradient id="paint7_linear" x1="96.9201" y1="213.147" x2="94.0068" y2="396.689" gradientUnits="userSpaceOnUse">
<stop stop-color="#129483"/>
<stop offset="1" stop-color="#3EAF98"/>
</linearGradient>
<linearGradient id="paint8_linear" x1="99.3494" y1="213.199" x2="96.4356" y2="396.773" gradientUnits="userSpaceOnUse">
<stop stop-color="#129483"/>
<stop offset="1" stop-color="#3EAF98"/>
</linearGradient>
<linearGradient id="paint9_linear" x1="99.2862" y1="213.164" x2="96.3739" y2="396.634" gradientUnits="userSpaceOnUse">
<stop stop-color="#129483"/>
<stop offset="1" stop-color="#3EAF98"/>
</linearGradient>
<linearGradient id="paint10_linear" x1="79.2845" y1="212.879" x2="76.3706" y2="396.45" gradientUnits="userSpaceOnUse">
<stop stop-color="#129483"/>
<stop offset="1" stop-color="#3EAF98"/>
</linearGradient>
<linearGradient id="paint11_linear" x1="62.0807" y1="212.613" x2="59.1665" y2="396.199" gradientUnits="userSpaceOnUse">
<stop stop-color="#129483"/>
<stop offset="1" stop-color="#3EAF98"/>
</linearGradient>
<linearGradient id="paint12_linear" x1="62.3773" y1="212.609" x2="59.4634" y2="396.176" gradientUnits="userSpaceOnUse">
<stop stop-color="#129483"/>
<stop offset="1" stop-color="#3EAF98"/>
</linearGradient>
<linearGradient id="paint13_linear" x1="139.972" y1="213.838" x2="137.059" y2="397.389" gradientUnits="userSpaceOnUse">
<stop stop-color="#129483"/>
<stop offset="1" stop-color="#3EAF98"/>
</linearGradient>
<linearGradient id="paint14_linear" x1="216.11" y1="215.051" x2="213.196" y2="398.624" gradientUnits="userSpaceOnUse">
<stop stop-color="#129483"/>
<stop offset="1" stop-color="#3EAF98"/>
</linearGradient>
<linearGradient id="paint15_linear" x1="437.395" y1="218.57" x2="434.482" y2="402.121" gradientUnits="userSpaceOnUse">
<stop stop-color="#129483"/>
<stop offset="1" stop-color="#3EAF98"/>
</linearGradient>
<linearGradient id="paint16_linear" x1="330.518" y1="216.867" x2="327.604" y2="400.44" gradientUnits="userSpaceOnUse">
<stop stop-color="#129483"/>
<stop offset="1" stop-color="#3EAF98"/>
</linearGradient>
<linearGradient id="paint17_linear" x1="634.907" y1="221.693" x2="633.614" y2="303.168" gradientUnits="userSpaceOnUse">
<stop stop-color="#129483"/>
<stop offset="1" stop-color="#3EAF98"/>
</linearGradient>
<linearGradient id="paint18_linear" x1="619.253" y1="221.425" x2="616.341" y2="404.793" gradientUnits="userSpaceOnUse">
<stop stop-color="#129483"/>
<stop offset="1" stop-color="#3EAF98"/>
</linearGradient>
<linearGradient id="paint19_linear" x1="586.845" y1="220.943" x2="583.933" y2="404.416" gradientUnits="userSpaceOnUse">
<stop stop-color="#129483"/>
<stop offset="1" stop-color="#3EAF98"/>
</linearGradient>
<linearGradient id="paint20_linear" x1="615.77" y1="221.395" x2="612.856" y2="404.965" gradientUnits="userSpaceOnUse">
<stop stop-color="#129483"/>
<stop offset="1" stop-color="#3EAF98"/>
</linearGradient>
<linearGradient id="paint21_linear" x1="610.381" y1="221.309" x2="607.467" y2="404.871" gradientUnits="userSpaceOnUse">
<stop stop-color="#129483"/>
<stop offset="1" stop-color="#3EAF98"/>
</linearGradient>
<linearGradient id="paint22_linear" x1="618.821" y1="221.436" x2="615.909" y2="404.907" gradientUnits="userSpaceOnUse">
<stop stop-color="#129483"/>
<stop offset="1" stop-color="#3EAF98"/>
</linearGradient>
<linearGradient id="paint23_linear" x1="584.288" y1="220.902" x2="581.378" y2="404.441" gradientUnits="userSpaceOnUse">
<stop stop-color="#129483"/>
<stop offset="1" stop-color="#3EAF98"/>
</linearGradient>
<linearGradient id="paint24_linear" x1="591.034" y1="220.999" x2="588.122" y2="404.487" gradientUnits="userSpaceOnUse">
<stop stop-color="#129483"/>
<stop offset="1" stop-color="#3EAF98"/>
</linearGradient>
<linearGradient id="paint25_linear" x1="584.272" y1="220.895" x2="581.361" y2="404.466" gradientUnits="userSpaceOnUse">
<stop stop-color="#129483"/>
<stop offset="1" stop-color="#3EAF98"/>
</linearGradient>
<linearGradient id="paint26_linear" x1="618.04" y1="221.429" x2="615.125" y2="405.026" gradientUnits="userSpaceOnUse">
<stop stop-color="#129483"/>
<stop offset="1" stop-color="#3EAF98"/>
</linearGradient>
<linearGradient id="paint27_linear" x1="523.362" y1="219.776" x2="522.05" y2="302.659" gradientUnits="userSpaceOnUse">
<stop stop-color="#129483"/>
<stop offset="1" stop-color="#3EAF98"/>
</linearGradient>
<linearGradient id="paint28_linear" x1="503.954" y1="219.615" x2="501.041" y2="403.198" gradientUnits="userSpaceOnUse">
<stop stop-color="#129483"/>
<stop offset="1" stop-color="#3EAF98"/>
</linearGradient>
<linearGradient id="paint29_linear" x1="510.798" y1="219.727" x2="507.884" y2="403.302" gradientUnits="userSpaceOnUse">
<stop stop-color="#129483"/>
<stop offset="1" stop-color="#3EAF98"/>
</linearGradient>
<linearGradient id="paint30_linear" x1="505.689" y1="219.652" x2="502.775" y2="403.213" gradientUnits="userSpaceOnUse">
<stop stop-color="#129483"/>
<stop offset="1" stop-color="#3EAF98"/>
</linearGradient>
<linearGradient id="paint31_linear" x1="503.374" y1="219.61" x2="500.46" y2="403.183" gradientUnits="userSpaceOnUse">
<stop stop-color="#129483"/>
<stop offset="1" stop-color="#3EAF98"/>
</linearGradient>
<linearGradient id="paint32_linear" x1="500.019" y1="219.573" x2="497.106" y2="403.106" gradientUnits="userSpaceOnUse">
<stop stop-color="#129483"/>
<stop offset="1" stop-color="#3EAF98"/>
</linearGradient>
<linearGradient id="paint33_linear" x1="824.011" y1="224.698" x2="821.097" y2="408.285" gradientUnits="userSpaceOnUse">
<stop stop-color="#129483"/>
<stop offset="1" stop-color="#3EAF98"/>
</linearGradient>
<linearGradient id="paint34_linear" x1="780.377" y1="224.009" x2="777.464" y2="407.542" gradientUnits="userSpaceOnUse">
<stop stop-color="#129483"/>
<stop offset="1" stop-color="#3EAF98"/>
</linearGradient>
<linearGradient id="paint35_linear" x1="1163.4" y1="229.906" x2="1162.1" y2="311.964" gradientUnits="userSpaceOnUse">
<stop stop-color="#129483"/>
<stop offset="1" stop-color="#3EAF98"/>
</linearGradient>
<linearGradient id="paint36_linear" x1="1129.38" y1="229.548" x2="1126.46" y2="413.14" gradientUnits="userSpaceOnUse">
<stop stop-color="#129483"/>
<stop offset="1" stop-color="#3EAF98"/>
</linearGradient>
<linearGradient id="paint37_linear" x1="1138.67" y1="229.694" x2="1135.75" y2="413.368" gradientUnits="userSpaceOnUse">
<stop stop-color="#129483"/>
<stop offset="1" stop-color="#3EAF98"/>
</linearGradient>
<linearGradient id="paint38_linear" x1="1140.94" y1="229.732" x2="1138.03" y2="413.203" gradientUnits="userSpaceOnUse">
<stop stop-color="#129483"/>
<stop offset="1" stop-color="#3EAF98"/>
</linearGradient>
<linearGradient id="paint39_linear" x1="1139.98" y1="229.716" x2="1137.07" y2="413.291" gradientUnits="userSpaceOnUse">
<stop stop-color="#129483"/>
<stop offset="1" stop-color="#3EAF98"/>
</linearGradient>
<linearGradient id="paint40_linear" x1="1138.28" y1="229.696" x2="1135.36" y2="413.336" gradientUnits="userSpaceOnUse">
<stop stop-color="#129483"/>
<stop offset="1" stop-color="#3EAF98"/>
</linearGradient>
<linearGradient id="paint41_linear" x1="1150.42" y1="229.882" x2="1147.51" y2="413.46" gradientUnits="userSpaceOnUse">
<stop stop-color="#129483"/>
<stop offset="1" stop-color="#3EAF98"/>
</linearGradient>
<linearGradient id="paint42_linear" x1="1150.57" y1="229.881" x2="1147.66" y2="413.434" gradientUnits="userSpaceOnUse">
<stop stop-color="#129483"/>
<stop offset="1" stop-color="#3EAF98"/>
</linearGradient>
<linearGradient id="paint43_linear" x1="1133.09" y1="229.532" x2="1130.38" y2="399.551" gradientUnits="userSpaceOnUse">
<stop stop-color="#129483"/>
<stop offset="1" stop-color="#3EAF98"/>
</linearGradient>
<linearGradient id="paint44_linear" x1="1105.06" y1="229.166" x2="1102.14" y2="412.537" gradientUnits="userSpaceOnUse">
<stop stop-color="#129483"/>
<stop offset="1" stop-color="#3EAF98"/>
</linearGradient>
<linearGradient id="paint45_linear" x1="1088.28" y1="228.908" x2="1086.99" y2="310.307" gradientUnits="userSpaceOnUse">
<stop stop-color="#129483"/>
<stop offset="1" stop-color="#3EAF98"/>
</linearGradient>
<linearGradient id="paint46_linear" x1="1141.99" y1="229.743" x2="1139.07" y2="413.364" gradientUnits="userSpaceOnUse">
<stop stop-color="#129483"/>
<stop offset="1" stop-color="#3EAF98"/>
</linearGradient>
<linearGradient id="paint47_linear" x1="1177.38" y1="230.305" x2="1174.47" y2="413.809" gradientUnits="userSpaceOnUse">
<stop stop-color="#129483"/>
<stop offset="1" stop-color="#3EAF98"/>
</linearGradient>
<linearGradient id="paint48_linear" x1="1029.79" y1="227.962" x2="1026.88" y2="411.488" gradientUnits="userSpaceOnUse">
<stop stop-color="#129483"/>
<stop offset="1" stop-color="#3EAF98"/>
</linearGradient>
<linearGradient id="paint49_linear" x1="1336.95" y1="232.871" x2="1334.04" y2="416.49" gradientUnits="userSpaceOnUse">
<stop stop-color="#129483"/>
<stop offset="1" stop-color="#3EAF98"/>
</linearGradient>
<linearGradient id="paint50_linear" x1="1305.14" y1="232.326" x2="1302.23" y2="415.868" gradientUnits="userSpaceOnUse">
<stop stop-color="#129483"/>
<stop offset="1" stop-color="#3EAF98"/>
</linearGradient>
<linearGradient id="paint51_linear" x1="1394.29" y1="233.658" x2="1391.36" y2="417.146" gradientUnits="userSpaceOnUse">
<stop stop-color="#129483"/>
<stop offset="1" stop-color="#3EAF98"/>
</linearGradient>
<linearGradient id="paint52_linear" x1="272.887" y1="215.953" x2="269.973" y2="399.516" gradientUnits="userSpaceOnUse">
<stop stop-color="#129483"/>
<stop offset="1" stop-color="#3EAF98"/>
</linearGradient>
</defs>
</svg>
