<svg width="526" height="386" viewBox="0 0 526 386" fill="none" xmlns="http://www.w3.org/2000/svg">
<path d="M519.65 428.264C532.439 452.422 523.495 485.688 500.295 500.255C480.342 512.782 454.949 511.34 431.433 509.468C366.594 504.307 301.756 499.145 236.919 493.982C213.739 492.136 186.425 495.829 169.442 480.604C151.387 464.416 139.185 422.624 127.845 400.905C119.646 385.196 111.4 369.414 100.862 355.154C89.1305 339.303 74.7577 325.57 58.3678 314.553C119.751 315.883 180.86 322.748 241.872 329.603L287.693 334.752C304.924 336.689 322.165 338.627 339.261 341.511C359.207 344.88 378.912 349.524 398.599 354.168L483.395 374.159" fill="#3A2E26"/>
<g style="mix-blend-mode:multiply" opacity="0.25">
<path d="M424.326 430.457C440.267 432.279 456.413 430.144 471.323 424.242C472.141 423.916 473.096 423.38 473.078 422.503C473.06 421.627 471.247 421.69 471.638 422.475L449.218 366.097C432.346 362.12 415.473 358.143 398.6 354.165C378.912 349.524 359.208 344.876 339.259 341.514C322.163 338.629 304.922 336.691 287.691 334.755L241.869 329.605C180.856 322.748 119.749 315.884 58.3651 314.554C72.0959 323.798 84.4236 334.957 94.9712 347.688C96.5749 347.693 98.1786 347.738 99.7762 347.869C98.7867 348.557 97.7654 349.196 96.729 349.811C98.0216 351.423 99.2849 353.058 100.519 354.716L107.869 354.334C105.955 355.242 103.993 356.049 101.992 356.75C102.444 357.375 102.89 358.002 103.331 358.632L124.301 357.183C121.397 357.526 118.665 358.74 116.471 360.666C114.277 362.592 112.723 365.137 112.017 367.964C117.265 363.442 123.9 360.829 130.834 360.554L122.797 366.718C130.953 363.372 139.767 361.918 148.57 362.466C144.288 363.277 140.21 364.929 136.576 367.326C142.628 365.868 148.845 365.203 155.07 365.345C153.336 365.402 151.649 365.924 150.189 366.857C148.728 367.789 147.547 369.098 146.772 370.643C153.936 367.528 161.759 366.216 169.553 366.825C163.865 367.144 158.384 369.064 153.748 372.362C157.817 370.859 162.07 369.909 166.393 369.537C163.063 370.033 160.405 372.744 159.056 375.816C157.706 378.888 157.437 382.307 157.204 385.65C158.346 381.842 160.876 378.596 164.297 376.548C167.706 374.532 171.531 373.315 175.483 372.99C172.696 373.714 170.248 375.381 168.56 377.705C166.872 380.029 166.049 382.866 166.231 385.728C167.94 380.756 173.2 378.065 177.995 375.868C176.879 376.864 176.115 378.192 175.818 379.655C175.521 381.118 175.706 382.637 176.346 383.987C177.741 377.247 184.603 372.089 191.494 372.597C187.815 374.409 184.517 376.904 181.777 379.947C186.83 377.39 192.486 376.246 198.141 376.636C196.166 377.067 194.298 377.885 192.644 379.043C190.991 380.201 189.585 381.675 188.51 383.379C192.745 379.198 198.337 376.654 204.284 376.203C202.692 377.389 201.432 378.963 200.625 380.772C199.818 382.582 199.491 384.568 199.676 386.539C202.841 383.197 207.028 380.99 211.584 380.263C209.859 381.715 208.64 383.674 208.101 385.859C207.563 388.044 207.734 390.342 208.589 392.424C209.68 388.227 212.809 384.718 216.628 382.637C220.52 380.643 224.876 379.717 229.246 379.957C225.818 380.78 222.793 382.785 220.707 385.617C224.811 383.772 229.255 382.793 233.758 382.743C231.489 383.651 229.467 385.078 227.855 386.908C227.059 387.83 226.484 388.92 226.175 390.096C225.865 391.271 225.829 392.502 226.069 393.694C229.681 389.982 234.195 387.263 239.173 385.799C237.091 388.263 235.702 391.232 235.146 394.404C235.659 391.452 241.324 388.005 243.714 386.762C247.623 384.724 250.935 385.448 255.151 386.394C252.608 386.685 250.247 387.852 248.478 389.694C246.709 391.535 245.643 393.935 245.465 396.478C250.512 391.934 256.798 388.981 263.529 387.99C261.822 389.083 260.378 390.538 259.3 392.251C258.222 393.963 257.537 395.891 257.293 397.898C262.7 393.192 269.516 390.394 276.683 389.937C274.892 390.445 273.232 391.33 271.816 392.533C270.399 393.736 269.259 395.228 268.473 396.908C273.581 394.764 278.959 393.322 284.458 392.622L275.661 398.622C282.559 398.448 289.353 396.913 295.651 394.108C293.424 397.691 290.441 400.749 286.909 403.071C294.807 402.571 302.491 400.305 309.389 396.442C307.633 397.871 305.878 399.3 304.124 400.731C309.627 399.486 315.13 398.242 320.632 396.999C317.601 401.177 316.112 406.268 316.417 411.412C317.598 408.514 319.529 405.98 322.014 404.067C324.498 402.154 327.448 400.931 330.561 400.523C328.168 402.686 326.311 405.374 325.139 408.374C332.969 403.913 341.795 401.471 350.814 401.271C345.21 403.536 340.183 407.017 336.1 411.46C342.002 409.134 347.904 406.808 353.808 404.481C353.397 407.375 352.065 410.061 350.007 412.145L364.832 408.46C362.579 410.731 360.9 413.503 359.935 416.548C358.97 419.592 358.746 422.822 359.282 425.969C362.881 420.03 368.636 415.696 375.355 413.866C372.509 416.413 370.329 419.612 369.001 423.185C367.674 426.759 367.24 430.601 367.736 434.379C369.86 426.048 374.883 418.737 381.912 413.749C378.147 418.473 375.701 424.103 374.821 430.07C376.222 426.737 378.28 423.717 380.873 421.19C383.467 418.663 386.543 416.68 389.92 415.357C387.129 419.033 385.369 423.381 384.82 427.956C390.37 424.378 395.919 420.801 401.467 417.226C400.305 420.097 399.142 422.968 397.978 425.839C404.631 424.666 411.059 422.469 417.032 419.326C413.247 423.394 410.738 428.474 409.811 433.942L428.95 425.324C426.838 426.424 425.196 428.247 424.326 430.457Z" fill="#3A2E26"/>
</g>
<path d="M469.047 409.688C468.66 408.9 470.472 408.841 470.489 409.717C470.505 410.594 469.548 411.13 468.729 411.453C453.803 417.314 437.652 419.407 421.716 417.544C422.222 416.261 422.994 415.098 423.981 414.132C424.967 413.165 426.148 412.416 427.444 411.934L407.191 420.988C408.133 415.524 410.656 410.451 414.45 406.393C408.469 409.521 402.035 411.702 395.379 412.857C396.549 409.989 397.72 407.122 398.891 404.256L382.217 414.938C382.778 410.365 384.55 406.022 387.351 402.355C383.97 403.668 380.888 405.643 378.288 408.163C375.688 410.683 373.621 413.697 372.212 417.027C373.108 411.063 375.569 405.44 379.345 400.726C372.302 405.696 367.258 412.993 365.111 421.319C364.625 417.54 365.068 413.7 366.405 410.13C367.741 406.559 369.929 403.366 372.781 400.826C366.057 402.64 360.291 406.959 356.677 412.889C356.149 409.74 356.382 406.511 357.355 403.469C358.328 400.426 360.014 397.658 362.273 395.393L347.44 399.039C349.502 396.96 350.84 394.278 351.257 391.385L333.535 398.318C337.632 393.887 342.668 390.419 348.277 388.167C339.258 388.343 330.426 390.762 322.585 395.204C323.764 392.207 325.627 389.523 328.027 387.366C324.912 387.767 321.96 388.982 319.47 390.888C316.98 392.795 315.042 395.324 313.853 398.219C313.564 393.073 315.068 387.985 318.11 383.815L301.591 387.504C303.349 386.078 305.107 384.653 306.866 383.229C299.958 387.073 292.269 389.319 284.37 389.799C287.908 387.487 290.899 384.436 293.135 380.858C286.831 383.648 280.034 385.165 273.137 385.32C276.073 383.329 279.01 381.337 281.948 379.345C276.447 380.03 271.066 381.458 265.952 383.589C266.743 381.911 267.887 380.422 269.306 379.223C270.726 378.024 272.388 377.143 274.179 376.64C267.011 377.079 260.189 379.86 254.77 384.552C255.019 382.546 255.709 380.62 256.792 378.91C257.874 377.2 259.322 375.75 261.033 374.662C254.298 375.634 248.004 378.571 242.944 383.102C243.129 380.56 244.201 378.163 245.975 376.326C247.748 374.489 250.112 373.327 252.655 373.043C248.44 372.085 245.132 371.354 241.218 373.381C238.827 374.62 233.152 378.05 232.631 381.001C233.196 377.831 234.593 374.866 236.68 372.407C231.699 373.857 227.179 376.562 223.556 380.26C223.319 379.068 223.358 377.837 223.671 376.662C223.984 375.487 224.561 374.398 225.36 373.479C226.976 371.652 229.001 370.23 231.272 369.328C226.77 369.368 222.324 370.336 218.216 372.171C220.309 369.345 223.339 367.349 226.769 366.535C222.399 366.283 218.041 367.197 214.144 369.182C210.321 371.252 207.181 374.755 206.08 378.947C205.231 376.863 205.066 374.563 205.61 372.38C206.154 370.196 207.379 368.24 209.109 366.792C204.55 367.507 200.357 369.703 197.183 373.038C197.003 371.067 197.334 369.083 198.145 367.276C198.955 365.469 200.218 363.899 201.812 362.717C195.863 363.152 190.264 365.681 186.017 369.852C187.098 368.151 188.507 366.68 190.164 365.527C191.82 364.374 193.691 363.561 195.667 363.135C190.013 362.73 184.356 363.86 179.296 366.403C182.044 363.367 185.348 360.881 189.031 359.078C182.141 358.553 175.267 363.693 173.854 370.431C173.217 369.08 173.036 367.56 173.337 366.098C173.637 364.635 174.405 363.309 175.524 362.316C170.723 364.5 165.456 367.178 163.734 372.145C163.559 369.282 164.389 366.448 166.084 364.128C167.778 361.808 170.23 360.148 173.019 359.431C169.067 359.745 165.239 360.952 161.825 362.96C158.4 364.999 155.862 368.238 154.708 372.042C154.951 368.698 155.228 365.281 156.585 362.213C157.942 359.144 160.608 356.439 163.94 355.951C159.617 356.312 155.363 357.251 151.292 358.743C155.937 355.458 161.422 353.553 167.111 353.25C159.32 352.621 151.492 353.911 144.32 357.007C145.1 355.464 146.284 354.158 147.747 353.229C149.21 352.301 150.898 351.782 152.632 351.73C146.409 351.571 140.191 352.22 134.135 353.661C137.776 351.274 141.857 349.633 146.142 348.834C137.34 348.263 128.523 349.693 120.358 353.017C123.041 350.97 125.725 348.923 128.41 346.876C121.475 347.134 114.834 349.729 109.575 354.238C110.288 351.413 111.848 348.872 114.047 346.953C116.246 345.033 118.98 343.826 121.886 343.492L89.563 345.638C95.0727 344.702 100.424 343.006 105.464 340.598L80.0574 341.847C86.2612 340.35 92.1353 337.728 97.3862 334.113C89.0607 333.406 79.2137 332.332 71.9005 336.969C74.1512 333.492 77.3502 330.724 81.1229 328.992C75.0325 328.481 68.9551 330.112 63.9475 333.602C66.8333 329.321 71.269 326.316 76.3276 325.216C68.7381 325.033 61.2125 326.636 54.3624 329.895C58.7442 325.316 64.2364 321.938 70.3099 320.085C61.1737 319.637 52.1574 322.307 44.7517 327.654C46.0385 324.515 48.1649 321.787 50.8997 319.767C53.6344 317.747 56.873 316.512 60.2632 316.197C52.3503 316.133 44.5168 317.629 36.7462 319.12L54.0093 312.668L32.7448 315.262C38.6376 313.669 44.2999 311.327 49.5919 308.294C39.5881 309.969 29.3666 309.533 19.2322 309.094C27.4448 309.32 35.6052 307.726 43.1238 304.428C33.6766 301.99 23.6816 302.771 14.7319 306.646C16.9017 303.684 19.7028 301.237 22.9344 299.48C26.1659 297.724 29.7479 296.701 33.4233 296.485C28.9596 295.041 24.2043 294.729 19.5891 295.579C14.9738 296.429 10.6447 298.412 6.99448 301.35C7.35724 297.153 11.3835 294.117 15.4671 293.011C19.5507 291.905 23.8783 292.166 28.0524 291.47C18.7993 289.289 9.05908 290.714 0.826904 295.453C4.03438 290.685 9.42323 287.667 15.0442 286.393C20.6653 285.12 26.5309 285.434 32.2376 286.239C25.1105 282.077 17.0682 279.717 8.81379 279.366C18.0078 277.876 28.2846 276.613 35.8914 281.968C32.4472 278.302 29.148 274.509 25.994 270.589C31.618 274.709 37.418 278.578 43.394 282.193C39.3766 279.063 35.7713 275.441 32.6632 271.414C38.6297 275.629 44.6577 279.877 51.3926 282.728C46.4142 279.575 42.5667 274.933 40.4021 269.467C45.9181 275.206 52.5925 279.716 59.9855 282.7C55.5538 277.666 50.0794 273.648 43.9391 270.922C52.4059 273.039 60.174 277.312 66.4799 283.323C63.3855 279.11 61.9211 273.927 62.3555 268.725C64.0784 274.563 67.8218 279.605 72.9218 282.957C71.839 281.001 70.9359 278.712 69.4227 277.063C71.9337 279.372 75.5931 280.019 77.9147 282.549C78.5787 283.272 79.126 284.156 80.0083 284.587C79.5207 283.177 78.7505 281.88 77.7445 280.775C76.7385 279.67 75.5176 278.78 74.1558 278.159C78.254 279.498 82.529 280.943 85.5064 284.048C83.1923 281.1 80.8078 277.998 80.1058 274.321C82.1897 278.025 85.5284 280.87 89.525 282.348C87.214 280.297 85.4111 277.741 84.2578 274.88C84.993 276.706 87.8246 277.451 89.4767 278.203C91.7407 279.236 94.044 280.178 96.3863 281.028C94.1484 276.894 90.5244 273.673 86.1462 271.927C93.1331 273.137 99.6997 276.086 105.236 280.499C103.487 275.561 98.5843 272.546 93.9735 270.031C100.162 271.581 105.587 275.204 110.874 278.761C109.728 276.501 108.57 274.198 108.143 271.701C107.716 269.204 108.123 266.442 109.812 264.545C110.461 267.928 111.963 271.092 114.177 273.739C116.39 276.386 119.243 278.429 122.467 279.678C120.894 276.617 119.08 273.685 117.041 270.91C121.027 273.481 125.012 276.053 128.995 278.625C128.389 277.585 127.783 276.545 127.176 275.506C126.454 274.437 125.955 273.234 125.71 271.969C125.599 271.334 125.679 270.68 125.941 270.091C126.202 269.501 126.633 269.002 127.179 268.656C127.091 269.024 127.085 269.407 127.161 269.779C127.237 270.15 127.393 270.5 127.618 270.805C129.773 274.584 133.111 277.558 137.122 279.273C135.581 277.669 134.413 275.748 133.702 273.644C133.108 271.511 133.439 269.007 135.029 267.464C134.804 269.164 135.968 270.711 137.138 271.967C139.419 274.413 141.98 276.584 144.77 278.435C143.344 276.569 142.471 274.343 142.251 272.009C142.32 272.755 143.649 273.997 144.136 274.539C144.923 275.42 145.796 276.221 146.742 276.93C148.605 278.463 150.917 279.353 153.331 279.466L143.738 270.126C148.408 274.459 153.917 277.796 159.928 279.933L156.483 275.68C161.852 277.87 167.406 279.283 172.876 281.129C171.246 280.047 169.858 278.642 168.798 277.002C167.739 275.361 167.03 273.52 166.718 271.595C170.667 276.383 176.067 279.77 182.111 281.246C180.491 280.385 179.065 279.201 177.923 277.769C176.781 276.337 175.946 274.687 175.47 272.921C179.156 276.645 183.685 279.435 188.677 281.057C185.642 278.359 183.687 274.662 183.172 270.644C182.975 272.352 184.294 273.828 185.572 274.979C188.732 277.835 192.228 280.3 195.984 282.319C193.392 278.99 191.527 275.159 190.507 271.071C193.479 276.784 198.35 281.292 204.289 283.825C203.828 282.034 203.015 280.352 201.898 278.876C200.78 277.4 199.38 276.159 197.778 275.224C203.476 277.143 208.791 280.043 213.482 283.791C210.956 279.25 210.033 273.997 210.86 268.872C211.601 275.217 214.807 281.022 219.793 285.041C217.621 280.999 216.457 276.497 216.398 271.913C217.823 279.465 225.01 284.386 231.748 288.132C229.813 283.622 227.137 279.465 223.83 275.831C228.611 280.392 233.105 285.242 237.286 290.355L233.611 278.669C236.202 284.302 240.548 288.953 246.005 291.93C244.418 288.603 242.83 285.274 241.244 281.944C244.402 286.7 248.233 290.977 252.62 294.641C250.821 290.527 250.259 285.98 251.005 281.554C250.889 284.258 251.406 286.951 252.515 289.422C253.624 291.892 255.295 294.072 257.395 295.79C256.475 293.133 255.543 290.416 255.535 287.606C255.527 284.796 256.609 281.823 258.963 280.27C256.531 287.02 260.636 295.367 267.48 297.596C267.215 295.762 266.562 294.005 265.564 292.442C264.566 290.878 263.245 289.544 261.69 288.528C266.997 290.424 271.41 294.212 274.077 299.158C271.935 293.952 269.782 288.041 272.018 282.873C271.741 286.262 273.181 289.609 275.279 292.291C277.376 294.972 280.099 297.089 282.794 299.177C281.943 294.54 279.367 290.394 275.579 287.567C280.895 289.035 285.496 292.372 288.529 296.96C287.208 292.833 284.686 289.191 281.281 286.496C287.397 288.65 290.592 295.402 296.106 298.807C294.249 294.06 293.511 288.952 293.947 283.876C293.692 286.812 296.081 290.648 298.02 292.653C300.129 294.832 304.078 296.071 306.934 296.972C305.456 294.958 303.978 292.943 302.5 290.927C307.025 293.392 311.13 296.553 314.667 300.291C312.493 296.507 311.639 292.111 312.237 287.792C313.744 291.97 316.2 295.744 319.412 298.822C317.679 296.024 316.941 292.726 317.317 289.46C319.974 292.682 322.631 295.905 325.289 299.128C323.406 295.474 322.558 291.378 322.838 287.281C324.63 290.577 327.197 293.392 330.319 295.486C333.441 297.58 337.025 298.891 340.766 299.306C337.818 296.682 334.873 294.059 331.931 291.435C339.285 296.046 347.391 299.343 355.884 301.177C353.135 298.029 350.386 294.88 347.637 291.73L366.49 301.975C363.527 298.36 361.335 294.183 360.045 289.697C364.58 293.599 369.114 297.503 373.647 301.407L365.571 295.91L388.869 303.677C387.186 302.423 385.84 300.774 384.95 298.878C384.06 296.982 383.653 294.896 383.766 292.806C388.001 297.359 393.066 301.07 398.691 303.741L391.804 296.222C398.6 298.853 404.959 302.489 410.667 307.006C409.082 305.561 407.936 303.702 407.362 301.639C406.788 299.577 406.808 297.395 407.42 295.344C409.907 300.207 413.323 304.542 417.476 308.104C415.853 305.008 413.684 302.227 411.072 299.896C417.095 301.994 422.47 305.607 426.676 310.384C426.051 306.568 426.63 302.652 428.335 299.178C428.934 303.145 429.535 307.111 430.139 311.077" fill="url(#paint0_linear)"/>
<path d="M70.3106 271.697L77.1713 288.371C77.1713 288.371 63.0333 291.217 58.9152 295.32C58.3702 295.936 57.9914 296.679 57.8145 297.481C57.5132 298.608 58.9746 301.237 60.1396 301.374L97.4457 306.511C100.658 306.89 103.05 301.667 102.081 298.593L89.4312 258.436" fill="#DB340A"/>
<path d="M73.3674 273.094C73.3674 273.094 72.7967 272.049 71.9226 270.579L70.3106 271.697L77.1712 288.371C77.1712 288.371 63.0334 291.217 58.9152 295.32C58.3703 295.936 57.9915 296.679 57.8145 297.481C58.8289 292.404 79.7229 289.588 79.7229 289.588L73.3674 273.094Z" fill="#FFE633"/>
<path d="M70.0487 294.347C70.0488 294.476 70.0234 294.603 69.974 294.722C69.9245 294.841 69.852 294.949 69.7605 295.04C69.6691 295.131 69.5605 295.204 69.441 295.253C69.3215 295.302 69.1934 295.327 69.0641 295.327C68.9348 295.327 68.8069 295.302 68.6875 295.253C68.5681 295.203 68.4597 295.131 68.3683 295.04C68.277 294.949 68.2046 294.841 68.1553 294.722C68.1059 294.603 68.0807 294.475 68.0808 294.347C68.0808 294.087 68.1844 293.838 68.3688 293.654C68.5532 293.471 68.8033 293.368 69.0641 293.368C69.1933 293.368 69.3213 293.393 69.4407 293.442C69.5601 293.491 69.6686 293.563 69.7601 293.654C69.8515 293.745 69.924 293.853 69.9736 293.972C70.0231 294.091 70.0486 294.218 70.0487 294.347Z" fill="#9B2710"/>
<path d="M78.0757 292.375C78.0757 292.504 78.0504 292.631 78.0009 292.75C77.9515 292.869 77.8789 292.977 77.7875 293.068C77.696 293.159 77.5874 293.232 77.4679 293.281C77.3484 293.33 77.2204 293.355 77.091 293.355C76.83 293.355 76.5796 293.252 76.395 293.068C76.2104 292.884 76.1066 292.635 76.1064 292.375C76.1068 292.115 76.2107 291.866 76.3953 291.682C76.5799 291.499 76.8301 291.396 77.091 291.396C77.2202 291.396 77.3482 291.421 77.4676 291.47C77.587 291.519 77.6955 291.591 77.787 291.682C77.8784 291.773 77.951 291.881 78.0005 292C78.05 292.119 78.0756 292.246 78.0757 292.375Z" fill="#9B2710"/>
<path d="M100.122 292.373C100.122 292.373 90.9568 294.487 92.8631 303.188" stroke="#721C0E" stroke-width="0.5" stroke-linejoin="round"/>
<path d="M57.9782 298.802L96.4049 303.633C98.0931 303.704 99.784 303.681 101.47 303.564" stroke="#721C0E" stroke-width="0.5" stroke-linejoin="round"/>
<path d="M75.9538 288.635L72.8893 293.155" stroke="#721C0E" stroke-width="0.5" stroke-linecap="round" stroke-linejoin="round"/>
<path d="M72.0526 289.586L68.988 294.106" stroke="#721C0E" stroke-width="0.5" stroke-linecap="round" stroke-linejoin="round"/>
<path d="M72.8893 289.382L76.9751 292.373" stroke="#721C0E" stroke-width="0.5" stroke-linecap="round" stroke-linejoin="round"/>
<path d="M67.7361 290.895L72.6842 293.019" stroke="#721C0E" stroke-width="0.5" stroke-linecap="round" stroke-linejoin="round"/>
<path d="M64.2129 292.199C63.6323 294.627 63.6323 297.157 64.2129 299.584" stroke="#721C0E" stroke-width="0.5" stroke-linejoin="round"/>
<path d="M72.8894 277.963C72.8894 277.963 87.0403 276.975 94.5994 274.841" stroke="#721C0E" stroke-width="0.5" stroke-linejoin="round"/>
<path d="M160.356 297.127L168.693 315.479C168.693 315.479 155.988 321.338 153.027 326.134C152.651 326.838 152.461 327.625 152.474 328.422C152.445 329.555 154.421 331.708 155.551 331.577L191.937 328.056C195.055 327.693 196.132 322.227 194.521 319.542L179.417 282.95" fill="#DB340A"/>
<path d="M171.486 317.017L162.933 298.802C162.933 298.802 162.399 299.122 161.507 299.659L168.693 315.48C168.693 315.48 155.988 321.338 153.027 326.135C152.651 326.839 152.461 327.626 152.474 328.423C154.607 321.524 171.486 317.017 171.486 317.017Z" fill="#FFE633"/>
<path d="M163.32 322.72C163.35 322.842 163.354 322.968 163.335 323.091C163.315 323.215 163.271 323.333 163.206 323.439C163.14 323.546 163.054 323.639 162.952 323.712C162.851 323.785 162.736 323.838 162.614 323.867C162.367 323.925 162.107 323.884 161.891 323.752C161.675 323.619 161.521 323.407 161.462 323.162C161.433 323.04 161.428 322.914 161.448 322.791C161.468 322.668 161.512 322.549 161.577 322.443C161.643 322.336 161.729 322.244 161.831 322.171C161.933 322.098 162.048 322.045 162.17 322.016C162.292 321.987 162.418 321.982 162.542 322.002C162.666 322.022 162.785 322.065 162.892 322.131C162.999 322.196 163.091 322.282 163.165 322.383C163.238 322.484 163.291 322.599 163.32 322.72Z" fill="#9B2710"/>
<path d="M170.453 319.053C170.512 319.299 170.471 319.558 170.338 319.773C170.206 319.988 169.993 320.142 169.746 320.2C169.5 320.259 169.24 320.217 169.024 320.085C168.808 319.953 168.654 319.741 168.595 319.495C168.536 319.25 168.578 318.991 168.711 318.777C168.844 318.562 169.056 318.408 169.303 318.35C169.425 318.321 169.551 318.316 169.675 318.335C169.799 318.355 169.918 318.399 170.024 318.464C170.131 318.529 170.224 318.615 170.298 318.716C170.371 318.817 170.424 318.932 170.453 319.053Z" fill="#9B2710"/>
<path d="M192.222 313.959C192.222 313.959 183.092 318.16 186.861 325.948" stroke="#721C0E" stroke-width="0.5" stroke-linejoin="round"/>
<path d="M152.932 329.633L190.307 325.574C191.918 325.26 193.509 324.859 195.075 324.37" stroke="#721C0E" stroke-width="0.5" stroke-linejoin="round"/>
<path d="M167.603 316.001L165.733 320.956" stroke="#721C0E" stroke-width="0.5" stroke-linecap="round" stroke-linejoin="round"/>
<path d="M164.136 317.774L162.265 322.729" stroke="#721C0E" stroke-width="0.5" stroke-linecap="round" stroke-linejoin="round"/>
<path d="M164.879 317.394L169.414 319.301" stroke="#721C0E" stroke-width="0.5" stroke-linecap="round" stroke-linejoin="round"/>
<path d="M160.357 319.978L165.509 320.873" stroke="#721C0E" stroke-width="0.5" stroke-linecap="round" stroke-linejoin="round"/>
<path d="M157.324 322C157.326 324.423 157.899 326.812 158.996 328.974" stroke="#721C0E" stroke-width="0.5" stroke-linejoin="round"/>
<path d="M164.137 305.446C164.137 305.446 176.901 304.965 185.95 299.343" stroke="#721C0E" stroke-width="0.5" stroke-linejoin="round"/>
<path d="M122.411 137.296C122.411 137.296 120.663 197.522 128.106 228.067C133.9 251.845 154.017 289.265 160.021 299.85C160.496 300.687 161.227 301.35 162.108 301.742C162.989 302.135 163.974 302.235 164.917 302.029L183.987 297.918C184.498 297.809 184.98 297.595 185.404 297.291C185.828 296.987 186.184 296.598 186.45 296.151C186.716 295.703 186.886 295.205 186.95 294.689C187.014 294.173 186.969 293.649 186.82 293.15C182.567 278.967 166.605 230.704 164.895 220.888C163.48 212.769 163.526 187.858 164.895 182.695C165.953 178.704 171.528 155.293 161.09 139.591" fill="#031B2D"/>
<g style="mix-blend-mode:screen">
<path d="M130.791 230.443C123.348 199.899 126.947 139.704 126.947 139.704L162.477 141.917C162.047 141.128 161.592 140.349 161.089 139.592L122.409 137.296C122.409 137.296 120.661 197.522 128.104 228.067C133.898 251.845 154.015 289.265 160.019 299.85C160.571 300.818 161.465 301.546 162.528 301.892C156.298 290.859 136.522 253.967 130.791 230.443Z" fill="#FFE633"/>
</g>
<path d="M128.595 154.551C128.595 154.551 126.012 198.224 132.706 228.067C138.064 251.942 158.915 291.446 164.918 302.029" stroke="#174866" stroke-width="0.5" stroke-miterlimit="10"/>
<path d="M106.133 140.923C106.133 140.923 104.835 147.698 102.535 149.99C100.234 152.281 47.0803 165.825 43.4969 191.872C39.5695 220.42 61.0033 260.895 67.7837 272.826C68.3581 273.835 69.2323 274.643 70.2861 275.138C71.34 275.633 72.5218 275.79 73.6694 275.59L90.3908 272.7C91.1149 272.576 91.8046 272.301 92.4144 271.892C93.0243 271.484 93.5406 270.952 93.9295 270.332C94.3184 269.711 94.571 269.015 94.6709 268.29C94.7708 267.565 94.7156 266.828 94.5089 266.125C90.2153 251.564 81.2666 212.989 85.3661 205.528C90.4419 196.29 115.764 193.36 130.003 189.344C140.518 186.379 158.734 170.776 149.192 146.011" fill="#031B2D"/>
<path d="M125.545 161.095C125.545 161.095 133.651 167.769 142.547 170.113C142.547 170.113 137.849 182.438 129.3 182.438C119.986 182.438 116.16 176.051 115.329 173.142C114.34 169.685 125.545 161.095 125.545 161.095Z" fill="#062D38"/>
<path d="M164.152 185.804C164.208 185.749 164.264 185.69 164.317 185.631C166.679 182.967 167.604 175.435 167.042 170.073C163.178 170.961 159.208 171.307 155.248 171.101C155.248 171.101 151.808 182.729 154.056 184.669C156.202 186.522 161.772 188.121 164.152 185.804Z" fill="#062D38"/>
<g style="mix-blend-mode:screen">
<path d="M69.3087 273C62.5275 261.069 42.9138 220.594 46.844 192.046C50.4273 166.001 103.581 154.272 105.882 151.979C108.182 149.685 107.661 141.158 107.657 141.107L106.133 140.926C106.133 140.926 104.835 147.701 102.535 149.992C100.234 152.284 47.0803 165.828 43.4969 191.875C39.5695 220.423 61.0033 260.898 67.7837 272.828C68.2889 273.715 69.027 274.448 69.919 274.949C70.8109 275.45 71.823 275.699 72.8464 275.67C72.1056 275.488 71.4098 275.157 70.8016 274.697C70.1934 274.238 69.6854 273.661 69.3087 273Z" fill="#FFE633"/>
</g>
<path d="M77.1954 274.534C70.4128 262.603 49.9713 218.481 52.6073 191.984C54.893 168.989 108.151 155.448 111.264 153.404C114.378 151.361 115.293 142.416 115.293 142.416" stroke="#174866" stroke-width="0.5" stroke-miterlimit="10"/>
<path d="M123.772 190.913C123.772 190.913 145.285 186.785 150.665 168.932" stroke="#174866" stroke-width="0.5" stroke-miterlimit="10"/>
<path d="M97.6087 87.6915C101.647 105.776 103.444 124.285 102.962 142.805C102.836 143.713 103.019 144.636 103.481 145.428C104.079 146.218 105.147 146.461 106.123 146.632C123.585 149.736 141.495 149.313 158.79 145.389C159.618 145.274 160.399 144.938 161.051 144.417C161.875 143.626 162.006 142.378 162.075 141.24C162.772 129.695 162.097 117.903 158.285 106.978C154.474 96.0535 147.286 86.0161 137.169 80.3328" fill="#DB340A"/>
<g style="mix-blend-mode:screen">
<path d="M106.273 146.637C105.786 145.86 105.574 144.942 105.67 144.03C105.568 125.506 103.187 107.064 98.5795 89.1158L137.574 80.588C137.435 80.5075 137.309 80.4085 137.168 80.3293L97.6073 87.6915C101.645 105.776 103.443 124.285 102.96 142.805C102.835 143.713 103.018 144.636 103.48 145.428C104.078 146.218 105.145 146.461 106.121 146.632C106.177 146.644 106.235 146.648 106.292 146.658L106.273 146.637Z" fill="#FFE633"/>
</g>
<path d="M117.017 51.8554C117.017 51.8554 117.952 64.0272 118.826 69.8578C121.14 72.1621 137.583 69.8578 137.583 69.8578L129.465 49.4177" fill="#DD864B"/>
<path d="M120.718 32.9352C120.718 32.9352 105.112 48.4736 110.314 53.654C115.516 58.8344 133.486 58.8344 133.486 53.654C133.486 48.4736 132.539 32.9352 120.718 32.9352Z" fill="#DD864B"/>
<path d="M120.607 47.6026C121.01 48.0264 121.517 48.339 122.077 48.51C122.638 48.6809 123.233 48.7045 123.805 48.5782C124.501 48.391 125.132 48.0187 125.631 47.5014C126.13 46.984 126.478 46.3411 126.638 45.6416C127.159 43.4164 125.872 41.2807 124.554 39.5929C123.32 38.0104 122.193 36.7911 120.034 36.8833C119.155 36.9212 118.139 36.9521 117.558 36.2902C117.22 35.7668 117.01 35.171 116.947 34.5515C116.779 33.7768 116.352 33.0819 115.736 32.5802C115.426 32.3357 115.057 32.1767 114.665 32.1191C114.274 32.0615 113.874 32.1073 113.506 32.252C113.143 32.4327 112.837 32.7111 112.624 33.0557C112.411 33.4003 112.3 33.7974 112.301 34.202C112.312 34.6056 112.405 35.0028 112.575 35.3695C112.744 35.7361 112.987 36.0646 113.288 36.335C113.649 36.6728 114.117 37.0106 114.124 37.5047C114.124 37.8673 113.869 38.1851 113.838 38.5464C113.785 39.1429 114.378 39.6163 114.964 39.7525C115.55 39.8888 116.169 39.8083 116.76 39.9273C117.334 40.0828 117.861 40.3751 118.296 40.7788C118.731 41.1826 119.06 41.6857 119.256 42.2447C119.868 43.7625 119.449 45.5143 120.166 46.9551C120.694 48.0182 121.837 48.7337 122.446 49.783C122.892 50.6414 123.252 51.5419 123.519 52.4713C123.887 53.5556 124.318 54.6173 124.748 55.6783C124.933 56.2282 125.22 56.7383 125.596 57.1817C126.253 57.7543 127.078 58.102 127.949 58.1739C130.177 58.5365 132.686 58.403 134.367 56.9017C134.692 56.6357 134.94 56.2878 135.084 55.8943C135.194 55.3661 135.173 54.8188 135.021 54.3008C134.793 53.1444 134.647 51.9734 134.584 50.7965C134.508 49.3888 134.533 47.9005 133.83 46.6765" fill="#5B3719"/>
<path d="M139.845 41.8862C139.828 41.7596 139.811 41.6344 139.791 41.5071C139.152 37.3519 136.728 35.3249 133.486 33.1974C129.014 30.2622 121.907 30.8257 118.041 34.9176C117.819 35.1639 117.674 35.4693 117.624 35.7964C117.574 36.1235 117.621 36.458 117.759 36.7588C118.865 38.834 121.402 40.1358 122.043 42.4532C122.227 43.2307 122.212 44.042 121.997 44.8118C121.594 46.4962 120.451 48.1214 120.294 49.8553C120.156 51.3532 121.325 52.7596 122.379 53.6513C125.2 56.0375 129.634 57.19 133.151 56.1035C138.621 54.4123 140.525 47.2248 139.845 41.8862Z" fill="#031B2D"/>
<path d="M118.041 34.9162C119.441 36.3962 121.586 38.6558 122.935 40.2245C124.105 41.5862 124.954 43.3249 124.467 45.215C123.84 47.6507 121.72 49.8181 123.683 52.269C125.154 54.1047 127.576 55.0281 129.773 55.3411C132.21 55.6852 134.493 54.7811 136.682 53.7586" stroke="#41526D" stroke-width="0.5" stroke-linejoin="round"/>
<path d="M118.504 35.9434C122.564 31.8529 130.027 31.2894 134.723 34.2233C135.226 34.5364 135.701 34.8494 136.163 35.1659C135.313 34.4545 134.419 33.7968 133.486 33.1967C129.015 30.2615 121.907 30.825 118.041 34.9169C117.819 35.1632 117.675 35.4686 117.625 35.7957C117.575 36.1228 117.622 36.4573 117.76 36.7581C117.848 36.9212 117.955 37.0712 118.058 37.226C118.038 36.993 118.068 36.7586 118.145 36.5378C118.222 36.317 118.344 36.1145 118.504 35.9434Z" fill="#FFE633"/>
<path d="M120.869 50.8805C121.037 49.1466 122.235 47.5214 122.66 45.837C122.886 45.0689 122.902 44.255 122.709 43.4784C122.513 42.8595 122.199 42.2842 121.784 41.7844C121.889 41.9991 121.977 42.2224 122.045 42.4518C122.229 43.2294 122.213 44.0406 121.998 44.8104C121.595 46.4948 120.453 48.12 120.295 49.8539C120.263 50.7556 120.563 51.6379 121.14 52.3343C120.926 51.8807 120.833 51.3801 120.869 50.8805Z" fill="#FFE633"/>
<path d="M121.994 42.566C123.601 40.1497 125.858 38.2332 128.509 37.0365C131.159 35.8398 134.094 35.4114 136.978 35.8003C136.978 35.4067 135.396 33.7134 133.884 33.015C129.331 32.7398 123.328 36.4347 120.837 40.3938" fill="#091319"/>
<path d="M134.605 33.3983C134.373 33.2554 134.133 33.1267 133.885 33.013C129.332 32.7378 123.328 36.4326 120.836 40.3917L121.016 40.7296C123.872 36.9019 130.103 32.9979 134.605 33.3983Z" fill="#FFB133"/>
<path d="M134.678 28.5496L133.858 27.4418C133.858 27.4418 134.016 25.8001 136.157 25.3962C136.98 25.1961 137.846 25.2773 138.617 25.6267L139.872 27.4115" fill="#FFB133"/>
<path d="M134.188 34.6595L138.482 28.9913" stroke="#0E1C26" stroke-linecap="round" stroke-linejoin="round"/>
<path d="M136.415 28.0156L133.858 31.2612L140.534 31.5743L143.373 28.5468L136.415 28.0156Z" fill="#123A49"/>
<path d="M136.415 28.0156L135.447 26.6051L142.123 26.9175L143.367 28.5475L136.415 28.0156Z" fill="#FFE633"/>
<path d="M136.415 28.0156L135.447 26.6051L132.936 29.777L133.856 31.2605L136.415 28.0156Z" fill="#FFB133"/>
<path d="M201.221 143.928C202.614 150.42 206.119 162.849 207.312 162.784C208.505 162.719 207.215 156.184 208.088 155.801C208.961 155.418 214.652 167.3 215.519 166.921C216.387 166.542 211.343 155.344 211.343 155.344C211.343 155.344 218.018 166.23 218.489 165.527C218.959 164.825 215.835 157.676 214.54 153.86C215.475 155.91 219.745 162.277 220.146 161.773C220.546 161.268 216.11 151.358 216.11 151.358C216.11 151.358 220.108 158.297 220.711 158.032C221.315 157.768 218.037 150.889 216.987 148.766L209.744 134.111" fill="#DD864B"/>
<path d="M214.391 150.519C214.391 150.519 211.658 150.357 208.547 145.146" stroke="#964B18" stroke-width="0.5" stroke-miterlimit="10"/>
<path d="M207.087 153.162C207.087 153.162 208.242 151.27 207.484 147.832" stroke="#964B18" stroke-width="0.5" stroke-miterlimit="10"/>
<path d="M139.413 68.3774C139.413 68.3774 172.221 69.8966 192.484 93.6139C212.748 117.331 216.765 142.427 216.765 142.427L199.606 148.681C199.606 148.681 188.36 117.175 175.902 108.315C164.371 100.114 145.361 93.7639 145.361 93.7639" fill="#DB340A"/>
<path d="M198.263 145.146L215.91 138.491" stroke="#721C0E" stroke-width="0.5" stroke-linejoin="round"/>
<path d="M143.29 72.1958C143.29 72.1958 170.595 73.4701 190.77 91.7016C170.425 69.8213 139.412 68.3764 139.412 68.3764L145.362 93.7657C145.362 93.7657 146.595 94.1786 148.618 94.9244L143.29 72.1958Z" fill="#FFE633"/>
<path d="M180.715 112.852C191.114 124.901 199.607 148.68 199.607 148.68L201.722 147.909C198.207 139.14 189.862 120.207 180.715 112.852Z" fill="#FFE633"/>
<path d="M95.3851 46.6379C100.953 42.9871 111.312 35.223 110.817 34.14C110.322 33.057 104.498 36.1719 103.825 35.4996C103.151 34.8274 112.378 25.6914 111.708 25.024C111.038 24.3566 101.444 32.6862 101.444 32.6862C101.444 32.6862 110.155 22.9536 109.321 22.7782C108.487 22.6027 102.633 27.3138 99.5343 29.8995C101.112 28.2874 105.822 22.7912 105.208 22.6013C104.594 22.4114 96.9273 30.1266 96.9273 30.1266C96.9273 30.1266 101.971 23.8997 101.502 23.4332C101.033 22.9667 95.7886 28.5076 94.1835 30.2532L83.0976 42.2942" fill="#DD864B"/>
<path d="M86.1932 34.7992L100.159 45.237C100.159 45.237 78.6008 65.6379 84.9025 71.9102C91.2041 78.1826 115.34 71.9859 115.34 71.9859C115.34 71.9859 138.261 76.5216 135.074 91.6368C131.886 106.752 134.633 112.347 128.554 112.347C122.475 112.347 105.907 100.253 97.9479 100.253C89.9887 100.253 63.1197 97.8355 58.8675 81.9641C54.6761 66.3115 86.1932 34.7992 86.1932 34.7992Z" fill="#DB340A"/>
<path d="M100.081 100.491C100.081 100.491 105.008 101.316 106.15 102.454" stroke="#721C0E" stroke-width="0.5" stroke-linejoin="round"/>
<path d="M83.8611 37.2253L97.4222 47.9686" stroke="#721C0E" stroke-width="0.5" stroke-linejoin="round"/>
<g style="mix-blend-mode:screen">
<path d="M61.0738 82.9233C57.156 68.2945 84.4284 39.8165 88.0069 36.1561L86.1931 34.7999C86.1931 34.7999 54.6768 66.3129 58.8675 81.9628C60.6696 88.692 66.5421 92.9971 73.3087 95.7315C67.4984 92.9799 62.6775 88.9094 61.0738 82.9233Z" fill="#FFE633"/>
</g>
<path d="M100.551 103.497C106.384 114.088 116.344 123.74 126.117 130.889C125.52 132.968 124.657 135.95 125.076 138.073C119.617 134.304 114.126 130.504 109.47 125.788C104.814 121.071 100.386 114.756 100.549 103.495" fill="url(#paint1_linear)"/>
<path d="M138.906 97.1791C129.13 90.0295 119.514 72.5907 106.15 73.5726C113.254 76.2182 116.326 84.3366 123.729 90.613C128.787 94.9017 132.407 100.594 137.864 104.363C137.447 102.24 138.308 99.2578 138.906 97.1791Z" fill="url(#paint2_linear)"/>
<g style="mix-blend-mode:screen">
<path d="M110.712 125.389C106.506 121.132 102.821 113.761 100.719 103.773C100.665 103.68 100.603 103.59 100.551 103.498C100.389 114.757 104.815 121.075 109.473 125.791C113.303 129.512 117.462 132.881 121.9 135.857C117.951 132.602 114.108 128.829 110.712 125.389Z" fill="#FFE633"/>
</g>
<path d="M123.776 80.7146C122.048 88.8963 122.091 97.3326 122.137 105.691C122.199 116.46 122.26 123.6 122.319 134.367C122.367 142.768 123.103 150.72 130.067 155.462C133.752 157.97 138.419 158.44 142.866 158.833C153.549 159.781 164.465 160.712 174.885 158.179C177.136 157.628 179.465 156.854 181.001 155.125C182.949 152.936 183.179 149.762 183.249 146.838C183.647 130.071 181.9 118.696 178.061 102.364C177.468 99.6128 176.664 96.9103 175.658 94.2804C174.032 90.3098 171.637 86.6972 168.608 83.6492C165.579 80.6012 161.977 78.1776 158.007 76.5168C154.02 74.8967 149.752 74.075 145.446 74.0986C141.14 74.1222 136.881 74.9907 132.912 76.6544" fill="#196461"/>
<path d="M160.791 115.228C160.791 115.228 160.335 118.462 162.316 118.462C164.297 118.462 170.457 119.047 170.457 117.821V114.899" fill="#389E7E"/>
<path d="M129.223 111.769C128.948 113.581 129.22 115.434 130.004 117.092C130.292 117.698 131.052 118.347 131.532 117.873C131.695 117.672 131.777 117.418 131.762 117.16C131.788 116.221 131.587 115.289 131.175 114.445C130.762 113.6 130.151 112.867 129.393 112.307" fill="#389E7E"/>
<path d="M155.231 123.629C154.957 125.441 155.229 127.293 156.013 128.951C156.301 129.559 157.06 130.207 157.54 129.734C157.704 129.533 157.786 129.279 157.771 129.02C157.797 128.082 157.596 127.15 157.184 126.306C156.772 125.461 156.161 124.728 155.404 124.168" fill="#389E7E"/>
<path d="M123.186 124.062C123.186 124.062 132.94 128.37 143.373 126.103" stroke="#0E1C26" stroke-width="0.5" stroke-linejoin="round"/>
<path d="M148.203 159.214C147.069 158.973 146.057 158.338 145.348 157.424C144.64 156.509 144.28 155.374 144.334 154.22C144.334 149.912 141.985 108.169 144.334 105.832" stroke="#0E1C26" stroke-width="0.5" stroke-linejoin="round"/>
<path d="M136.68 84.3372C135.462 84.3372 128.789 86.2954 128.789 92.7363C128.789 99.1772 128.554 112.346 128.554 112.346L129.962 113.346C129.962 113.346 130.595 94.365 130.722 92.4295C131.02 87.8608 138.107 85.8434 138.107 85.8434" fill="#0E1C26"/>
<path d="M148.23 140.639C153.444 141.029 158.68 141.029 163.894 140.639C163.894 140.639 166.206 158.749 162.898 159.532C158.099 160.667 151.151 160.762 149.304 159.088C147.106 157.097 148.23 140.639 148.23 140.639Z" fill="url(#paint3_linear)"/>
<path d="M169.404 139.701C169.404 139.701 177.093 140.152 183.252 138.167C183.252 138.167 184.565 152.725 182.05 155.226C178.112 159.148 172.543 158.343 170.751 156.819C168.959 155.294 169.404 139.701 169.404 139.701Z" fill="url(#paint4_linear)"/>
<path d="M148.23 140.639C153.414 141.517 158.71 141.517 163.894 140.639" stroke="#0E1C26" stroke-width="0.5" stroke-linecap="round" stroke-linejoin="round"/>
<path d="M169.404 139.701C169.404 139.701 178.378 139.828 183.252 138.167" stroke="#0E1C26" stroke-width="0.5" stroke-linecap="round" stroke-linejoin="round"/>
<path d="M129.963 83.248C131.126 83.248 136.591 86.4221 139.977 93.4519C142.907 99.5337 144.772 112.221 147.066 114.506C149.36 116.792 179.079 117.186 180.15 112.349C181.221 107.512 176.881 77.5901 153.597 75.0209" fill="url(#paint5_linear)"/>
<path d="M134.221 83.248C135.287 83.248 140.288 86.1537 143.387 92.5864C146.066 98.1507 147.773 109.762 149.873 111.852C151.973 113.942 179.17 114.304 180.15 109.877" stroke="#389E7E" stroke-width="0.5" stroke-miterlimit="10" stroke-linecap="round"/>
<path d="M154.669 124.062C162.502 124.259 170.336 123.788 178.088 122.653" stroke="#0E1C26" stroke-width="0.5" stroke-linecap="round" stroke-linejoin="round"/>
<path d="M119.335 65.0441C123.366 65.0441 127.389 65.5141 131.418 65.4019C132.057 65.4364 132.693 65.2975 133.258 65.0001C134.379 64.2914 134.522 62.6731 134.54 61.297C136.118 62.23 138.256 62.4157 139.998 63.0123C142.036 63.7079 144.207 64.6719 145.203 66.6679C146.327 66.5052 147.474 66.6312 148.535 67.034C151.719 68.1396 154.41 70.3267 156.136 73.2114C158.105 76.4099 159.147 80.0887 159.146 83.8405C159.149 84.4403 159.051 85.0363 158.857 85.604C158.311 86.7223 157.382 87.6093 156.237 88.1044C151.513 90.6178 146.041 91.0004 140.867 90.2587C135.568 89.4977 130.416 87.9372 125.589 85.6308C120.523 83.1965 116.463 79.1094 111.447 76.6173C108.007 74.915 104.146 73.9538 100.386 74.5304C100.784 74.4691 102.784 70.9477 103.282 70.4247C104.56 69.0813 106.052 67.9581 107.698 67.1007C111.163 65.3063 115.524 65.0427 119.335 65.0441Z" fill="#DB340A"/>
<path d="M156.24 88.103C157.385 87.6079 158.315 86.7209 158.86 85.6026C159.055 85.0349 159.152 84.4389 159.15 83.8391C159.15 80.0873 158.108 76.4085 156.139 73.21C154.413 70.3253 151.722 68.1382 148.538 67.0326C147.477 66.6298 146.33 66.5038 145.207 66.6666C145.125 66.5143 145.035 66.3664 144.937 66.2234C145.209 66.9686 145.52 67.7 145.778 68.45C146.102 69.3995 146.305 70.5465 145.722 71.346C145.022 72.3093 143.85 72.0712 142.855 72.2013C141.783 72.3526 140.69 72.2688 139.654 71.9557C137.097 71.2339 134.786 69.813 132.3 68.8821C130.32 68.1418 128.277 67.5797 126.196 67.2025C121.262 66.3129 116.039 66.487 111.369 68.5257C116.118 67.012 121.274 67.9656 125.969 69.6513C130.664 71.3371 135.12 73.7384 139.88 75.2074C142.144 75.9065 144.766 76.1831 146.896 74.8792C147.141 74.6828 147.44 74.5643 147.754 74.5393C147.949 74.5799 148.133 74.6636 148.292 74.7842C148.451 74.9048 148.581 75.0593 148.672 75.2363C149.395 76.3028 149.771 77.9624 148.81 78.7997C148.451 79.0708 148.031 79.2512 147.587 79.3254C141.189 80.8511 134.457 80.108 128.55 77.2241C130.079 77.8076 131.092 79.3137 132.411 80.3142C135.571 82.7086 140.366 82.1354 142.992 85.1594C143.138 85.2948 143.25 85.4612 143.322 85.6461C143.394 85.831 143.423 86.0297 143.407 86.2273C143.302 86.7089 142.776 86.9291 142.319 87.0482C137.29 88.3472 131.996 86.9794 127.112 85.1711C124.989 84.3847 122.879 83.515 120.75 82.7285C122.286 83.8182 123.904 84.7874 125.591 85.6273C130.418 87.9337 135.57 89.4942 140.869 90.2552C146.045 90.999 151.516 90.6164 156.24 88.103Z" fill="#B72609"/>
<path d="M102.367 74.5324C102.367 74.5324 103.07 73.4081 107.259 75.0141C111.449 76.62 120.337 82.8359 123.186 84.3372" stroke="#721C0E" stroke-width="0.5" stroke-linejoin="round"/>
<path d="M119.335 65.0441C115.523 65.0441 111.163 65.3063 107.7 67.1028C106.054 67.9601 104.562 69.0833 103.284 70.4268C102.786 70.949 100.786 74.4712 100.388 74.5324C100.537 74.509 100.685 74.5042 100.836 74.4863C103.717 71.1321 107.17 68.225 111.286 67.0402C112.333 66.7586 113.394 66.5342 114.465 66.368C116.373 66.0031 118.298 65.7362 120.234 65.5684C122.187 65.4308 124.178 65.4941 126.119 65.2932C123.859 65.1872 121.598 65.0441 119.335 65.0441Z" fill="#FFE633"/>
<path d="M116.42 41.4431C116.26 41.6633 116.154 41.9171 116.109 42.1848" stroke="#091319" stroke-miterlimit="10"/>
<path d="M111.743 47.4092L115.356 49.664C115.356 49.664 112.299 52.5538 110.846 50.7257C109.891 49.5161 111.743 47.4092 111.743 47.4092Z" fill="white"/>
<path d="M113.729 42.1848C113.729 42.1848 109.057 43.6985 109.505 44.5875C109.954 45.4765 112.039 45.9733 112.039 45.9733" fill="#DD864B"/>
<path d="M200.253 26.305C198.28 21.8154 193.896 13.3406 193.043 13.5649C192.19 13.7892 193.742 18.3972 193.165 18.8024C192.589 19.2077 187.063 11.381 186.492 11.7842C185.921 12.1874 190.813 20.1785 190.813 20.1785C190.813 20.1785 184.787 12.6532 184.552 13.2347C184.316 13.8161 187.034 18.6455 188.537 21.2161C187.556 19.871 184.126 15.7722 183.908 16.1933C183.689 16.6144 188.375 23.1303 188.375 23.1303C188.375 23.1303 184.452 18.702 184.055 18.982C183.658 19.262 187.051 23.7537 188.125 25.1346L195.543 34.6676" fill="#DD864B"/>
<path d="M190.809 32.9571C190.809 32.9571 187.383 27.1259 188.133 26.3463C188.883 25.5667 197.931 21.1728 198.843 22.1189C199.755 23.0649 204.09 32.1576 204.09 32.1576" fill="#196461"/>
<path d="M191.544 32.1645C191.544 32.1645 188.73 27.3735 188.769 25.9032C188.542 26.0284 188.329 26.1769 188.132 26.3463C187.383 27.1258 190.808 32.9571 190.808 32.9571L204.086 32.1576L203.741 31.431L191.544 32.1645Z" fill="#FFE633"/>
<path d="M289.644 17.8729C288.878 13.428 287.94 5.075 288.709 4.81766C289.479 4.56033 289.981 8.49327 290.628 8.5146C291.274 8.53592 292.193 -0.241617 292.839 -0.223728C293.484 -0.205838 293.784 8.40244 293.784 8.40244C293.784 8.40244 294.59 -0.417072 295.065 -0.088869C295.54 0.239334 295.907 5.31856 296.058 8.04946C296.127 6.52129 296.68 1.64503 297.061 1.86039C297.443 2.07575 297.154 9.44347 297.154 9.44347C297.154 9.44347 297.914 4.06218 298.365 4.07663C298.816 4.09108 298.487 9.25356 298.365 10.8554C298.079 14.5438 297.793 18.2318 297.51 21.9193" fill="#DD864B"/>
<path d="M287.495 18.6428C287.495 18.6428 287.333 12.4297 288.283 12.1324C289.233 11.8352 298.485 12.292 298.798 13.4576C299.111 14.6232 298.551 23.8672 298.551 23.8672" fill="#196461"/>
<path d="M288.437 18.3263C288.437 18.3263 288.305 13.2223 288.99 12.0553C288.751 12.055 288.512 12.0804 288.278 12.131C287.328 12.4276 287.491 18.6414 287.491 18.6414L298.546 23.8658L298.589 23.1255L288.437 18.3263Z" fill="#FFE633"/>
<path d="M341.821 260.542L377.902 268.513C377.902 268.513 381.524 285.577 385.645 289.679C386.264 290.22 387.01 290.596 387.814 290.773C388.948 291.073 391.586 289.614 391.724 288.454L396.269 253.923C396.648 250.724 392.821 248.543 381.833 247.336L342.033 236.445" fill="#031B2D"/>
<path d="M379.416 267.522C379.416 267.522 360.375 262.81 360.144 262.246C360.144 262.246 359.993 263.1 359.804 264.517L377.908 268.516C377.908 268.516 380.912 282.629 384.558 288.258C381.759 283.405 379.416 267.522 379.416 267.522Z" fill="#FFE633"/>
<path d="M385.029 288.945C384.897 288.782 384.776 288.611 384.666 288.433C384.787 288.612 384.906 288.784 385.029 288.945Z" fill="#FFE633"/>
<path d="M384.664 278.592C384.793 278.592 384.921 278.617 385.04 278.666C385.16 278.715 385.269 278.787 385.36 278.878C385.452 278.969 385.524 279.077 385.574 279.196C385.623 279.315 385.648 279.443 385.648 279.571C385.648 279.831 385.545 280.08 385.36 280.264C385.176 280.448 384.926 280.551 384.665 280.552C384.536 280.552 384.408 280.527 384.288 280.477C384.169 280.428 384.06 280.356 383.969 280.265C383.878 280.174 383.805 280.066 383.756 279.948C383.706 279.829 383.68 279.701 383.68 279.573C383.68 279.444 383.706 279.317 383.755 279.198C383.804 279.079 383.877 278.971 383.968 278.88C384.059 278.789 384.168 278.716 384.287 278.667C384.406 278.618 384.534 278.592 384.664 278.592Z" fill="#9B2710"/>
<path d="M382.676 270.598C382.805 270.598 382.933 270.624 383.053 270.673C383.172 270.722 383.281 270.794 383.372 270.885C383.464 270.976 383.536 271.084 383.585 271.203C383.635 271.322 383.66 271.45 383.66 271.579C383.66 271.707 383.635 271.835 383.586 271.954C383.536 272.073 383.464 272.181 383.373 272.272C383.281 272.363 383.173 272.435 383.054 272.485C382.934 272.534 382.806 272.559 382.677 272.559C382.416 272.559 382.166 272.456 381.981 272.272C381.796 272.088 381.693 271.839 381.692 271.579C381.693 271.319 381.796 271.07 381.981 270.886C382.165 270.703 382.415 270.599 382.676 270.598Z" fill="#9B2710"/>
<path d="M381.833 247.336C381.833 247.336 384.492 256.02 392.82 257.54" stroke="#721C0E" stroke-width="0.5" stroke-linejoin="round"/>
<path d="M389.142 290.609L393.38 254.96C393.449 253.28 393.425 251.597 393.307 249.919" stroke="#721C0E" stroke-width="0.5" stroke-linejoin="round"/>
<path d="M378.924 272.715L383.464 275.764" stroke="#721C0E" stroke-width="0.5" stroke-linecap="round" stroke-linejoin="round"/>
<path d="M379.881 276.598L384.422 279.648" stroke="#721C0E" stroke-width="0.5" stroke-linecap="round" stroke-linejoin="round"/>
<path d="M379.676 275.766L382.677 271.696" stroke="#721C0E" stroke-width="0.5" stroke-linecap="round" stroke-linejoin="round"/>
<path d="M381.197 280.896L383.328 275.968" stroke="#721C0E" stroke-width="0.5" stroke-linecap="round" stroke-linejoin="round"/>
<path d="M382.51 284.405C384.948 284.981 387.489 284.979 389.927 284.4" stroke="#721C0E" stroke-width="0.5" stroke-linejoin="round"/>
<path d="M255.914 164.912C255.914 164.912 267.379 227.869 298.801 247.37C322.802 262.265 350.896 267.191 362.829 269.543C364.386 269.85 366.001 269.538 367.33 268.675C368.658 267.811 369.595 266.464 369.939 264.922L374.044 246.71C374.387 245.204 374.139 243.625 373.35 242.296C372.562 240.966 371.292 239.988 369.802 239.561C357.158 235.935 326.352 226.331 316.107 216.129C308.629 208.683 302.259 193.572 297.666 179.919C293.846 158.19 291.62 150.518 291.62 150.518" fill="#2BA393"/>
<path d="M300.873 246.132C269.451 226.633 257.895 164.912 257.895 164.912H255.918C255.918 164.912 267.383 227.869 298.805 247.37C322.805 262.265 350.899 267.191 362.832 269.543C363.83 269.733 364.859 269.669 365.825 269.356C353.417 266.929 324.282 260.659 300.873 246.132Z" fill="#FFE633"/>
<path d="M268.064 190.913C268.064 190.913 284.099 227.394 295.304 238.554C306.51 249.714 355.004 269.777 369.94 264.921" stroke="#5DC9B7" stroke-width="0.5" stroke-miterlimit="10"/>
<path d="M244.039 294.592L250.664 330.8C250.664 330.8 236.275 340.746 234.081 346.119C233.82 346.898 233.761 347.729 233.91 348.536C234.073 349.693 236.446 351.549 237.573 351.224L272.129 341.523C275.239 340.628 276.264 338.633 271.79 326.19L266.421 285.435" fill="#031B2D"/>
<path d="M252.168 331.802C252.168 331.802 249.14 312.5 249.572 312.069C249.572 312.069 248.725 312.262 247.341 312.637L250.664 330.802C250.664 330.802 238.769 339.034 234.974 344.563C238.378 340.119 252.168 331.802 252.168 331.802Z" fill="#FFE633"/>
<path d="M234.521 345.269C234.62 345.086 234.731 344.908 234.853 344.738C234.734 344.917 234.621 345.096 234.521 345.269Z" fill="#FFE633"/>
<path d="M243.961 340.916C244.062 341.156 244.064 341.426 243.966 341.666C243.867 341.907 243.677 342.099 243.437 342.2C243.196 342.301 242.925 342.302 242.684 342.204C242.442 342.106 242.249 341.917 242.147 341.678C242.097 341.559 242.071 341.432 242.07 341.303C242.069 341.175 242.093 341.047 242.142 340.928C242.191 340.808 242.263 340.7 242.354 340.608C242.444 340.517 242.553 340.444 242.672 340.394C242.791 340.344 242.919 340.318 243.048 340.317C243.177 340.316 243.306 340.341 243.425 340.389C243.545 340.438 243.654 340.509 243.746 340.6C243.838 340.69 243.911 340.798 243.961 340.916Z" fill="#9B2710"/>
<path d="M250.586 335.991C250.688 336.23 250.689 336.5 250.591 336.741C250.493 336.981 250.302 337.173 250.062 337.274C249.943 337.325 249.815 337.351 249.686 337.352C249.556 337.353 249.428 337.328 249.308 337.28C249.189 337.231 249.08 337.16 248.988 337.069C248.896 336.979 248.823 336.871 248.772 336.752C248.722 336.634 248.696 336.506 248.695 336.378C248.694 336.249 248.719 336.121 248.767 336.002C248.816 335.883 248.888 335.774 248.979 335.683C249.07 335.591 249.178 335.518 249.297 335.468C249.537 335.368 249.808 335.366 250.05 335.464C250.292 335.562 250.485 335.751 250.586 335.991Z" fill="#9B2710"/>
<path d="M271.79 326.188C271.79 326.188 264.782 331.998 266.608 340.232" stroke="#721C0E" stroke-width="0.5" stroke-linejoin="round"/>
<path d="M234.576 349.691L270.047 339.273C271.629 338.685 273.177 338.009 274.684 337.25" stroke="#721C0E" stroke-width="0.5" stroke-linejoin="round"/>
<path d="M247.172 333.367L246.112 338.717" stroke="#721C0E" stroke-width="0.5" stroke-linecap="round" stroke-linejoin="round"/>
<path d="M243.949 335.753L242.889 341.104" stroke="#721C0E" stroke-width="0.5" stroke-linecap="round" stroke-linejoin="round"/>
<path d="M244.64 335.241L249.572 336.416" stroke="#721C0E" stroke-width="0.5" stroke-linecap="round" stroke-linejoin="round"/>
<path d="M240.482 338.629L245.87 338.672" stroke="#721C0E" stroke-width="0.5" stroke-linecap="round" stroke-linejoin="round"/>
<path d="M237.745 341.195C238.158 343.657 239.146 345.987 240.628 348" stroke="#721C0E" stroke-width="0.5" stroke-linejoin="round"/>
<path d="M237.058 156.664C237.058 156.664 230.809 207.399 232.401 231.002C234.577 263.241 241.481 300.617 244.005 316.843C244.253 318.436 245.083 319.881 246.335 320.903C247.587 321.924 249.174 322.45 250.791 322.379L271.443 321.496C271.895 321.478 272.338 321.368 272.745 321.171C273.151 320.973 273.512 320.694 273.804 320.351C274.097 320.007 274.314 319.607 274.443 319.176C274.572 318.744 274.609 318.29 274.552 317.844C272.723 303.48 265.909 249.281 265.787 237.68C265.654 225.131 271.388 183.88 271.388 183.88C271.388 183.88 280.36 171.468 273.184 152.279" fill="#2BA393"/>
<path d="M234.26 234.602C232.666 211.002 238.916 160.264 238.916 160.264L237.057 156.663C237.057 156.663 230.807 207.397 232.399 231.001C234.576 263.24 241.479 300.616 244.003 316.842C244.222 318.208 244.873 319.469 245.862 320.441C243.339 304.217 236.437 266.842 234.26 234.602Z" fill="#FFE633"/>
<path d="M243.625 157.243C243.625 157.243 237.375 207.978 238.967 231.581C241.141 263.82 245.87 314.94 251.084 320.722" stroke="#5DC9B7" stroke-width="0.5" stroke-miterlimit="10"/>
<g style="mix-blend-mode:multiply" opacity="0.25">
<g style="mix-blend-mode:multiply" opacity="0.25">
<g style="mix-blend-mode:multiply" opacity="0.25">
<path d="M225.825 175.055C227.959 173.485 230.357 172.306 232.906 171.574C234.16 171.215 235.66 171.015 236.637 171.875C237.315 172.472 237.541 173.413 237.918 174.234C238.951 176.476 241.266 177.912 243.658 178.553C246.049 179.195 248.564 179.163 251.043 179.242C253.295 179.31 256.072 179.871 256.683 182.032C257.178 183.787 255.854 185.536 254.411 186.653C252.967 187.769 251.239 188.685 250.379 190.293C249.667 191.627 249.677 193.206 249.474 194.7C248.919 198.624 246.824 202.17 243.649 204.559C239.551 207.611 234.235 208.344 229.346 209.841C224.458 211.339 219.327 214.281 218.128 219.236L225.825 175.055ZM268.634 216.505C268.05 215.827 267.287 215.325 266.431 215.059C265.574 214.793 264.66 214.772 263.793 214.999C262.933 215.252 262.162 215.742 261.568 216.411C260.974 217.08 260.582 217.902 260.436 218.783C260.257 219.983 260.552 221.231 260.27 222.411C259.732 224.664 257.378 225.899 255.346 227.021C253.314 228.143 251.124 229.911 251.339 232.214C251.539 234.37 253.774 235.8 254.395 237.876C255.16 240.421 253.264 243.036 251.079 244.564C248.894 246.091 246.289 247.083 244.481 249.04C242.674 250.997 242.096 254.517 244.24 256.102C245.216 256.737 246.383 257.013 247.542 256.885C252.434 256.61 256.529 252.834 261.394 252.242C263.708 251.96 266.038 252.422 268.356 252.677C270.675 252.932 273.132 252.952 275.202 251.889C277.272 250.826 278.776 248.359 278.052 246.152C277.423 244.231 275.352 242.987 274.916 241.015C274.559 239.39 275.469 237.691 276.774 236.658C278.149 235.702 279.709 235.044 281.354 234.726C284.838 233.848 288.431 233.23 291.677 231.689C294.923 230.147 297.861 227.474 298.647 223.982C299.011 222.587 298.856 221.108 298.21 219.818C296.942 217.528 293.95 216.769 291.335 216.986C288.721 217.204 286.204 218.156 283.586 218.326C283.434 218.356 283.277 218.352 283.126 218.314C282.975 218.276 282.835 218.205 282.715 218.106C282.487 217.851 282.553 217.46 282.586 217.119C282.87 214.268 279.645 212.074 276.775 212.28C273.906 212.486 271.439 214.294 269.153 216.033L268.634 216.505ZM301.08 155.432C298.183 160.828 295.286 166.224 292.389 171.619C291.587 172.944 290.995 174.385 290.636 175.891C290.199 178.267 290.924 180.792 290.201 183.099C289.559 185.145 287.894 186.671 286.545 188.339C285.196 190.007 284.082 192.217 284.808 194.233C287.227 195.296 290.285 192.994 292.561 194.33C295.681 196.157 293.276 202.097 296.371 203.966C298.241 205.095 300.6 203.749 302.296 202.374C309.042 196.904 314.752 190.277 319.156 182.806L301.08 155.432ZM320.862 209.571C319.896 211.95 319.642 214.556 320.129 217.075C320.616 219.594 321.824 221.92 323.608 223.771C325.467 225.637 327.945 227.005 329.108 229.369C330.345 231.881 329.775 234.85 329.805 237.649C329.844 240.933 330.746 244.151 332.423 246.98C333.054 248.038 334.05 249.156 335.273 248.98C336.586 248.79 337.188 247.279 337.535 246.003L339.005 240.613C339.121 239.962 339.415 239.355 339.854 238.858C340.488 238.414 341.221 238.131 341.989 238.033C346.804 236.769 349.175 231.133 349.006 226.179C348.836 221.225 346.879 216.508 346.19 211.598L320.862 209.571ZM349.422 284.688C354.538 283.28 359.338 280.914 363.564 277.716C365.181 276.494 366.788 275.025 367.295 273.065C368.313 269.1 364.485 265.565 363.758 261.538C362.929 256.948 366.218 252.144 364.684 247.738C364.222 246.414 362.933 245.101 361.595 245.536C360.932 245.831 360.386 246.336 360.041 246.972C358.614 249.086 357.417 251.345 356.471 253.711C355.771 255.465 354.586 257.663 352.724 257.319C350.781 256.958 350.044 253.938 348.068 253.958C347.513 254.001 346.981 254.198 346.532 254.525C343.961 256.152 342.222 258.768 340.156 260.997C336.72 264.696 332.326 267.38 327.458 268.755L349.422 284.688ZM229.203 316.437C232.401 317.147 235.679 315.808 238.564 314.264C243.308 311.722 247.688 308.556 251.585 304.851C253.637 302.9 255.661 300.546 255.787 297.723C255.938 294.268 253.27 290.456 255.303 287.655C255.856 286.891 256.685 286.369 257.275 285.634C259.57 282.761 257.314 278.227 258.998 274.961C259.638 273.714 260.848 272.658 260.864 271.259C260.882 269.396 258.604 268.208 256.777 268.599C254.95 268.99 253.546 270.404 252.255 271.751L247.453 276.77C247.066 277.23 246.592 277.609 246.058 277.884C245.339 278.124 244.572 278.182 243.826 278.051L231.153 276.881L229.203 316.437ZM276.502 282.533C274.283 282.939 272.279 284.11 270.842 285.842C269.405 287.574 268.627 289.755 268.645 292.001C268.714 293.832 269.267 295.892 268.137 297.338C267.506 297.982 266.773 298.519 265.968 298.928C264.861 299.661 263.94 300.639 263.277 301.786C262.614 302.932 262.227 304.216 262.146 305.537C262.032 307.693 263.012 310.111 265.056 310.835C267.588 311.73 270.109 309.729 272.361 308.267C275.33 306.346 278.74 305.207 282.272 304.96C283.569 304.869 285.087 304.795 285.823 303.727" fill="#2BA393"/>
</g>
</g>
</g>
<path d="M235.784 150.616C235.095 154.149 234.811 157.748 234.939 161.345C255.576 169.144 282.473 161.228 282.473 160.554C282.473 159.88 277.736 143.708 277.736 143.708" fill="#196461"/>
<path d="M248.853 56.4639C245.566 58.0547 242.862 60.6219 240.417 63.3287C238.735 65.1864 234.959 70.5966 238.977 72.1234C240.028 72.5231 241.121 72.8001 242.236 72.9491L243.026 78.0964C243.089 78.9927 243.376 79.859 243.862 80.6161C244.583 81.394 245.54 81.9151 246.588 82.0996C247.983 82.4687 249.411 82.7092 250.851 82.8179C251.415 82.9005 251.991 82.8409 252.526 82.6445C253.789 82.0727 253.973 80.3918 253.977 79.0088" fill="#DD864B"/>
<path d="M245.818 60.2978C243.666 60.748 241.541 61.3197 239.454 62.0104C239.201 62.0943 238.901 62.2409 238.901 62.5065C238.914 62.6422 238.972 62.7696 239.067 62.8677C239.439 63.3264 239.908 63.6964 240.442 63.9505C240.976 64.2046 241.561 64.3363 242.152 64.336" fill="#DD864B"/>
<path d="M247.017 60.95C246.67 61.1837 246.369 61.4787 246.129 61.8204" stroke="#091319" stroke-miterlimit="10"/>
<path d="M242.85 68.0419L239.429 66.4249C239.429 66.4249 237.728 69.1049 238.898 69.5728C240.667 70.2836 242.85 68.0419 242.85 68.0419Z" fill="white"/>
<path d="M269.577 79.2434C272.18 71.0686 276.618 60.0377 279.029 49.4155C282.829 32.6702 284.296 18.7605 286.209 16.8566C289.334 13.7452 299.511 17.2853 299.514 20.8549C299.204 31.9244 298.171 42.9621 296.422 53.8982C293.218 74.6169 287.566 98.3597 286.208 106.724C284.911 114.721 281.179 119.003 280.859 127.091C280.702 131.086 280.616 135.083 280.6 139.081C280.596 140.77 280.678 142.47 280.635 144.157C280.59 145.878 280.075 147.383 280.672 149.095C281.103 150.341 281.696 151.648 281.363 152.923C280.922 154.604 279.09 155.477 277.432 156.01C265.692 159.787 252.959 157.592 240.826 155.374C239.037 155.046 237.192 154.697 235.681 153.69C235.003 153.285 234.48 152.666 234.195 151.931C234.039 151.268 234.009 150.581 234.109 149.907C234.372 145.887 233.217 141.426 232.306 137.522C231.339 133.371 230.313 129.235 229.393 125.074C227.332 115.765 225.756 106.3 225.756 96.7421C207.993 64.0724 190.229 42.4544 190.229 32.62C190.229 29.4191 192.801 28.9891 195.878 28.0169C198.288 27.2552 201.009 26.1199 203.041 27.1224C207.671 29.4033 233.827 75.1687 239.189 77.3065C243.467 79.0122 248.073 78.47 250.824 78.7108C255.301 79.1044 258.681 80.6209 263.153 80.1778" fill="#053A36"/>
<path d="M270.497 77.7318C273.102 71.2448 278.248 58.5591 280.658 47.9389C284.261 32.0675 285.913 17.2571 288.655 15.7592C287.743 15.8599 286.887 16.2453 286.209 16.86C284.296 18.7653 282.829 32.6757 279.029 49.421C276.755 59.4418 272.695 69.795 270.055 77.802L270.497 77.7318Z" fill="#FFE633"/>
<path d="M236.936 154.048C236.781 153.384 236.752 152.698 236.85 152.024C237.114 148.004 235.959 143.542 235.049 139.639C234.082 135.489 231.236 127.723 230.314 123.563C228.253 114.255 226.677 104.79 226.677 95.2318C209.521 63.6748 192.011 40.8663 190.836 30.4856C190.414 31.1155 190.202 31.8618 190.23 32.6186C190.23 42.4516 207.994 64.0718 225.757 96.7407C225.757 106.299 227.332 115.763 229.394 125.072C230.314 129.234 231.339 133.371 232.307 137.52C233.217 141.425 234.372 145.887 234.109 149.906C234.01 150.58 234.039 151.266 234.196 151.93C234.48 152.665 235.004 153.284 235.682 153.688C236.131 153.978 236.607 154.221 237.105 154.414C237.04 154.296 236.983 154.174 236.936 154.048Z" fill="#FFE633"/>
<path d="M278.352 154.498C273.243 156.182 267.983 157.37 262.645 158.045C267.652 158.166 272.645 157.478 277.432 156.01C279.09 155.476 280.922 154.604 281.363 152.923V152.9C280.488 153.645 279.461 154.19 278.352 154.498Z" fill="#FFE633"/>
<path d="M225.758 99.2631C226.587 103.181 228.475 106.788 230.462 110.272C236.851 121.466 244.452 131.928 253.131 141.471C251.981 143.465 251.038 145.57 250.318 147.754C239.402 138.665 222.059 113.846 225.758 99.2631Z" fill="#601E15"/>
<path d="M225.402 101.265C223.601 116.021 239.887 139.067 250.316 147.753C250.375 147.576 250.458 147.409 250.52 147.23C241.09 138.594 226.805 117.471 225.402 101.265Z" fill="#FFE633"/>
<path d="M249.239 98.046C247.809 104.826 247.842 111.816 247.882 118.745C247.932 127.667 247.981 133.583 248.032 142.506C248.072 149.468 248.681 156.057 254.453 159.983C257.506 162.063 261.373 162.452 265.059 162.778C273.912 163.563 282.955 164.334 291.592 162.236C293.457 161.783 295.387 161.135 296.66 159.706C298.273 157.892 298.465 155.261 298.522 152.839C298.853 138.945 297.403 129.518 294.224 115.986C293.731 113.706 293.065 111.467 292.232 109.287C290.885 105.997 288.899 103.003 286.389 100.477C283.879 97.9516 280.894 95.9433 277.604 94.5671C274.3 93.2237 270.763 92.5421 267.194 92.5614C263.625 92.5806 260.095 93.3003 256.806 94.6793" fill="#601E15"/>
<path d="M279.91 126.648C279.91 126.648 279.533 129.332 281.173 129.332C282.814 129.332 287.919 129.818 287.919 128.801V126.38" fill="#3F1A11"/>
<path d="M253.749 123.783C253.523 125.284 253.748 126.819 254.397 128.193C254.637 128.696 255.266 129.233 255.663 128.841C255.799 128.674 255.866 128.463 255.853 128.249C255.875 127.471 255.708 126.699 255.366 125.999C255.025 125.299 254.519 124.691 253.891 124.227" fill="#3F1A11"/>
<path d="M275.305 133.61C275.076 135.112 275.302 136.647 275.952 138.021C276.191 138.524 276.819 139.06 277.218 138.668C277.353 138.501 277.421 138.29 277.408 138.076C277.43 137.299 277.263 136.527 276.922 135.827C276.58 135.127 276.074 134.519 275.447 134.055" fill="#3F1A11"/>
<path d="M248.748 133.969C248.748 133.969 256.832 137.539 265.476 135.661" stroke="#B2683F" stroke-width="0.5" stroke-linejoin="round"/>
<path d="M269.479 163.097C268.539 162.897 267.7 162.372 267.113 161.614C266.525 160.856 266.227 159.915 266.272 158.958C266.272 155.389 264.327 120.799 266.272 118.862" stroke="#B2683F" stroke-width="0.5" stroke-linejoin="round"/>
<path d="M259.929 101.049C258.92 101.049 253.39 102.672 253.39 108.011C253.39 113.35 253.195 124.262 253.195 124.262L254.363 125.087C254.363 125.087 254.888 109.359 254.992 107.754C255.239 103.969 261.112 102.297 261.112 102.297" fill="#38110D"/>
<path d="M269.501 147.705C273.821 148.028 278.16 148.028 282.48 147.705C282.48 147.705 284.395 162.713 281.651 163.363C277.675 164.302 271.918 164.381 270.388 162.995C268.569 161.344 269.501 147.705 269.501 147.705Z" fill="#7F3622"/>
<path d="M287.046 146.93C287.046 146.93 293.418 147.305 298.521 145.658C298.521 145.658 299.609 157.722 297.525 159.796C294.261 163.046 289.648 162.379 288.162 161.114C286.675 159.849 287.046 146.93 287.046 146.93Z" fill="#7F3622"/>
<path d="M269.501 147.705C273.796 148.433 278.184 148.433 282.48 147.705" stroke="#B2683F" stroke-width="0.5" stroke-linecap="round" stroke-linejoin="round"/>
<path d="M287.046 146.93C287.046 146.93 294.483 147.034 298.521 145.658" stroke="#B2683F" stroke-width="0.5" stroke-linecap="round" stroke-linejoin="round"/>
<path d="M254.363 100.148C255.33 100.148 259.856 102.778 262.662 108.603C265.088 113.643 266.634 124.153 268.535 126.049C270.436 127.944 295.063 128.27 295.95 124.26C296.837 120.249 293.242 95.4547 273.947 93.3259" fill="#7F3622"/>
<path d="M257.892 100.148C258.774 100.148 262.919 102.556 265.487 107.886C267.708 112.496 269.121 122.118 270.863 123.849C272.604 125.58 295.14 125.881 295.951 122.212" stroke="#B2683F" stroke-width="0.5" stroke-linejoin="round"/>
<path d="M274.837 133.969C281.327 134.132 287.82 133.74 294.243 132.8" stroke="#B2683F" stroke-width="0.5" stroke-linecap="round" stroke-linejoin="round"/>
<path d="M253.84 55.5777C252.786 55.4255 251.71 55.6082 250.766 56.0999C249.113 57.0852 248.63 59.265 248.699 61.1826C248.866 65.8139 248.307 69.3705 244.31 72.3078C242.949 73.3069 241.392 74.0417 240.146 75.1791C238.899 76.3164 237.979 78.0386 238.433 79.6604C239.406 83.1378 245.373 83.2025 246.203 86.7178C246.673 88.7132 245.143 90.553 244.303 92.4239C243.781 93.6112 243.522 94.8969 243.543 96.1931C243.565 97.4893 243.868 98.7655 244.43 99.9347C245.009 101.096 245.832 102.119 246.844 102.935C247.855 103.751 249.032 104.341 250.292 104.663C253.579 105.477 257.459 104.501 260.126 106.581C261.969 108.022 262.605 110.497 264.009 112.368C267.415 116.909 273.752 120.533 279.474 120.561C284.435 120.585 291.29 118.1 293.068 113.073C293.756 110.788 294.009 108.395 293.816 106.018C293.669 101.748 292.783 96.5226 289.35 93.5165C286.926 91.3952 282.324 91.4626 281.249 87.9226C280.143 84.2952 284.41 79.8035 281.817 77.0265C280.417 75.5286 276.842 75.2121 274.913 74.7422C272.374 74.1229 269.91 74.1229 268.101 71.8812C267.392 70.9015 266.843 69.8169 266.474 68.6673C265.75 66.7605 265.026 64.8536 264.3 62.9468" fill="#031B2D"/>
<path d="M268.038 61.2748C268.021 61.1475 268.003 61.0209 267.985 60.8957C267.346 56.7391 264.921 54.7135 261.679 52.584C257.207 49.6487 250.1 50.2136 246.234 54.3041C246.012 54.5504 245.866 54.8561 245.817 55.1835C245.767 55.5109 245.814 55.8457 245.953 56.1467C247.058 58.2219 249.594 59.5237 250.237 61.8411C250.42 62.6187 250.404 63.4298 250.19 64.1997C249.785 65.8841 248.645 67.5072 248.486 69.2432C248.347 70.7411 249.519 72.1475 250.573 73.0385C253.394 75.4233 260.799 76.3563 264.317 75.2699C269.787 73.58 268.716 66.6135 268.038 61.2748Z" fill="#DB340A"/>
<path d="M246.236 54.3034C247.636 55.7834 249.781 58.0451 251.13 59.6139C252.3 60.9755 253.148 62.7101 252.663 64.6043C252.035 67.0401 249.915 69.2074 251.878 71.6569C253.35 73.4947 255.771 74.416 257.968 74.7291C260.406 75.0766 265.661 73.9509 267.849 72.9291" stroke="#F7882D" stroke-width="0.5" stroke-miterlimit="10"/>
<path d="M246.697 55.33C250.755 51.2409 258.219 50.676 262.915 53.6099C263.418 53.925 263.894 54.2381 264.355 54.5546C263.505 53.8425 262.612 53.1841 261.679 52.5833C257.207 49.648 250.1 50.2129 246.234 54.3034C246.012 54.5498 245.866 54.8555 245.817 55.1829C245.767 55.5103 245.814 55.8451 245.953 56.146C246.039 56.3077 246.148 56.4591 246.25 56.6125C246.231 56.3796 246.261 56.1453 246.338 55.9245C246.415 55.7037 246.537 55.5013 246.697 55.33Z" fill="#FFE633"/>
<path d="M249.062 70.2671C249.229 68.5332 250.427 66.908 250.853 65.2257C251.077 64.4573 251.093 63.6437 250.901 62.867C250.705 62.2481 250.391 61.6729 249.975 61.173C250.081 61.3877 250.169 61.611 250.237 61.8404C250.421 62.6181 250.405 63.4291 250.191 64.1991C249.785 65.8834 248.645 67.5066 248.486 69.2425C248.456 70.1431 248.757 71.0237 249.332 71.7195C249.119 71.2663 249.026 70.7662 249.062 70.2671Z" fill="#FFE633"/>
<path d="M250.185 61.9525C251.792 59.5365 254.051 57.6203 256.701 56.4236C259.352 55.227 262.287 54.7984 265.171 55.1869C265.171 54.7926 263.589 53.1 262.076 52.3996C257.523 52.1243 251.522 55.8192 249.029 59.7797" fill="#091319"/>
<path d="M262.798 52.7869C262.565 52.6436 262.324 52.5142 262.076 52.3996C257.523 52.1243 251.522 55.8192 249.029 59.7783L249.209 60.1175C252.063 56.2892 258.297 52.3851 262.798 52.7869Z" fill="#FFB133"/>
<path d="M262.869 47.9348L262.051 46.8291C262.051 46.8291 262.209 45.1873 264.35 44.7821C265.172 44.5822 266.038 44.6634 266.808 45.0126L268.064 46.8015" fill="#FFB133"/>
<path d="M262.382 54.0482C263.814 52.1592 265.245 50.2705 266.676 48.382" stroke="#0E1C26" stroke-linecap="round" stroke-linejoin="round"/>
<path d="M264.607 47.4043L262.051 50.6498L268.727 50.9622L271.565 47.9348L264.607 47.4043Z" fill="#123A49"/>
<path d="M264.607 47.4043L263.64 45.9944L270.316 46.3068L271.56 47.9368L264.607 47.4043Z" fill="#FFE633"/>
<path d="M264.607 47.4043L263.64 45.9944L261.129 49.1664L262.049 50.6498L264.607 47.4043Z" fill="#FFB133"/>
<defs>
<linearGradient id="paint0_linear" x1="399.1" y1="461.61" x2="362.477" y2="134.356" gradientUnits="userSpaceOnUse">
<stop offset="0.048" stop-color="#063347"/>
<stop offset="0.385" stop-color="#0B404E"/>
<stop offset="0.995" stop-color="#196461"/>
</linearGradient>
<linearGradient id="paint1_linear" x1="100.544" y1="120.784" x2="126.117" y2="120.784" gradientUnits="userSpaceOnUse">
<stop offset="0.048" stop-color="#063347"/>
<stop offset="0.385" stop-color="#0B404E"/>
<stop offset="0.995" stop-color="#196461"/>
</linearGradient>
<linearGradient id="paint2_linear" x1="106.15" y1="88.948" x2="138.906" y2="88.948" gradientUnits="userSpaceOnUse">
<stop offset="0.048" stop-color="#063347"/>
<stop offset="0.385" stop-color="#0B404E"/>
<stop offset="0.995" stop-color="#196461"/>
</linearGradient>
<linearGradient id="paint3_linear" x1="164.713" y1="157.941" x2="145.54" y2="144.215" gradientUnits="userSpaceOnUse">
<stop offset="0.048" stop-color="#063347"/>
<stop offset="0.385" stop-color="#0B404E"/>
<stop offset="0.995" stop-color="#196461"/>
</linearGradient>
<linearGradient id="paint4_linear" x1="185.075" y1="56.4" x2="168.356" y2="47.8791" gradientUnits="userSpaceOnUse">
<stop offset="0.048" stop-color="#063347"/>
<stop offset="0.385" stop-color="#0B404E"/>
<stop offset="0.995" stop-color="#196461"/>
</linearGradient>
<linearGradient id="paint5_linear" x1="176.221" y1="116.593" x2="145.51" y2="70.7397" gradientUnits="userSpaceOnUse">
<stop offset="0.048" stop-color="#063347"/>
<stop offset="0.385" stop-color="#0B404E"/>
<stop offset="0.995" stop-color="#196461"/>
</linearGradient>
</defs>
</svg>
